# Blender v2.78 (sub 0) OBJ File: 'low+poly+forest+assets+1+.blend'
# www.blender.org
mtllib boulder.mtl
o bush_1_Icosphere.002
v -0.273549 0.289908 1.359417
v -0.953239 0.418942 0.461887
v -0.921350 0.379595 -0.675771
v -0.018972 0.211612 -1.372115
v 0.725468 0.321137 0.181765
v -0.125165 0.919009 -0.202625
v 0.793446 -0.093426 0.625509
v 0.866655 -0.067313 -0.468235
v -0.602501 -0.139186 1.232181
v 0.109508 -0.153981 1.331615
v -1.119815 -0.053926 0.170743
v -0.990714 -0.077737 0.806070
v -0.735681 -0.076579 -1.002833
v -1.149964 -0.059014 -0.434925
v 0.377434 -0.175450 -1.214705
v -0.195859 -0.166010 -1.385365
v 0.308934 0.346338 0.973429
v -0.672300 0.469405 0.911932
v -1.057535 0.472418 -0.113125
v -0.510753 0.342892 -1.232729
v 0.420296 0.312583 -0.940091
v -0.123859 0.770428 0.674679
v 0.334830 0.706643 -0.023299
v -0.605377 0.830250 0.225657
v -0.570352 0.771945 -0.535770
v -0.105420 0.644471 -0.974141
v 0.644533 -0.514876 -0.385583
v 0.247991 -0.602528 -0.990641
v -0.216697 -0.594876 -1.128971
v -0.654255 -0.522387 -0.818907
v -0.990056 -0.508149 -0.358583
v -0.965618 -0.504025 0.132346
v -0.860974 -0.523325 0.647317
v -0.546305 -0.573133 0.992704
v 0.030821 -0.585126 1.073302
v 0.585193 -0.536042 0.500961
vt 0.6718 0.4524
vt 0.6580 0.4472
vt 0.6628 0.4307
vt 0.6853 0.4050
vt 0.6833 0.4220
vt 0.6757 0.3991
vt 0.6857 0.3671
vt 0.6845 0.3849
vt 0.6765 0.3739
vt 0.6264 0.3958
vt 0.6246 0.4134
vt 0.6180 0.4055
vt 0.6361 0.3318
vt 0.6326 0.3701
vt 0.6251 0.3385
vt 0.6211 0.3709
vt 0.6165 0.3444
vt 0.6294 0.3847
vt 0.6511 0.3792
vt 0.6627 0.3868
vt 0.6562 0.4024
vt 0.6578 0.3671
vt 0.6249 0.4343
vt 0.6165 0.4266
vt 0.6686 0.4103
vt 0.6757 0.3953
vt 0.6757 0.4326
vt 0.6494 0.4146
vt 0.6193 0.3144
vt 0.6314 0.3045
vt 0.6441 0.3543
vt 0.6404 0.3796
vt 0.6343 0.3999
vt 0.6337 0.4224
vt 0.6954 0.3740
vt 0.6953 0.3945
vt 0.6954 0.4167
vt 0.6952 0.4338
vt 0.6854 0.4400
vt 0.6379 0.2923
vt 0.6262 0.2910
vt 0.6441 0.3168
vt 0.6336 0.3847
vt 0.6978 0.3508
vt 0.6945 0.3305
vt 0.7046 0.3282
vt 0.7073 0.3446
vt 0.6343 0.4435
vt 0.6955 0.3060
vt 0.6862 0.3163
vt 0.6745 0.3049
vt 0.6862 0.3281
vt 0.6862 0.3554
vt 0.6766 0.3671
vt 0.6671 0.3661
vt 0.6583 0.3560
vt 0.6510 0.3444
vt 0.6494 0.3251
vt 0.6514 0.3070
vt 0.6602 0.2994
vt 0.6978 0.2910
vt 0.7073 0.2961
vt 0.7055 0.3083
vt 0.7037 0.3948
vt 0.7038 0.4128
vt 0.7038 0.3782
vt 0.6432 0.4030
vt 0.6427 0.4212
vt 0.6588 0.2910
vt 0.6765 0.2977
vt 0.6426 0.3906
vt 0.6494 0.3211
vt 0.6494 0.3514
vt 0.6432 0.4383
vn 0.3192 0.7415 0.5901
vn -0.6290 0.7117 0.3129
vn -0.6655 0.6937 -0.2755
vn -0.0297 0.6733 -0.7388
vn 0.7400 0.6402 -0.2062
vn 0.4904 0.8250 -0.2810
vn 0.5237 0.7993 -0.2947
vn 0.4507 0.6513 -0.6105
vn -0.0591 0.9400 -0.3360
vn -0.2697 0.8096 -0.5214
vn -0.5707 0.6766 -0.4653
vn -0.2543 0.9633 -0.0855
vn -0.5764 0.8123 -0.0887
vn -0.6930 0.6954 0.1904
vn -0.0332 0.9854 0.1669
vn -0.2882 0.8588 0.4235
vn -0.2222 0.8203 0.5270
vn 0.3636 0.9186 0.1550
vn 0.5570 0.7763 0.2951
vn 0.5920 0.7529 0.2875
vn 0.7527 0.6241 -0.2095
vn 0.7948 0.2431 -0.5561
vn 0.6170 0.3441 -0.7078
vn -0.2342 0.1435 -0.9615
vn -0.5873 -0.1235 -0.7999
vn -0.7975 0.1017 -0.5946
vn -0.9064 0.3227 -0.2726
vn -0.9886 0.1429 0.0480
vn -0.9566 0.2177 0.1938
vn -0.8036 0.3788 0.4591
vn -0.6913 0.2728 0.6691
vn -0.6525 0.2929 0.6989
vn 0.4876 0.3713 0.7902
vn 0.6917 0.2173 0.6887
vn 0.7563 0.5318 0.3810
vn 0.2824 -0.0988 -0.9542
vn 0.6526 -0.4735 0.5915
vn -0.8028 0.0952 -0.5886
vn -0.9561 0.2123 0.2022
vn -0.1397 -0.1815 0.9734
vn 0.9696 0.2344 0.0705
vn -0.0177 -0.9998 0.0009
vn -0.7025 -0.4114 0.5807
vn -0.9266 -0.3324 0.1758
vn -0.9435 -0.3275 0.0497
vn -0.5731 -0.3998 -0.7153
vn 0.7705 -0.4633 -0.4379
vn -0.1304 -0.4919 0.8608
vn 0.2383 -0.5069 -0.8284
vn 0.8983 -0.4366 0.0497
vn -0.7583 -0.3621 -0.5420
usemtl Material.010
s off
f 1/1/1 17/2/1 22/3/1
f 2/4/2 18/5/2 24/6/2
f 3/7/3 19/8/3 25/9/3
f 4/10/4 20/11/4 26/12/4
f 5/13/5 21/14/5 23/15/5
f 23/15/6 26/16/6 6/17/6
f 23/15/7 21/14/7 26/16/7
f 21/14/8 4/18/8 26/16/8
f 26/19/9 25/20/9 6/21/9
f 26/19/10 20/22/10 25/20/10
f 20/11/11 3/23/11 25/24/11
f 25/20/12 24/25/12 6/21/12
f 25/20/13 19/26/13 24/25/13
f 19/8/14 2/4/14 24/6/14
f 24/25/15 22/3/15 6/21/15
f 24/25/16 18/27/16 22/3/16
f 18/27/17 1/1/17 22/3/17
f 22/3/18 23/28/18 6/21/18
f 22/29/19 17/30/19 23/15/19
f 17/30/20 5/13/20 23/15/20
f 8/31/21 21/14/21 5/13/21
f 8/31/22 15/32/22 21/14/22
f 15/32/23 4/18/23 21/14/23
f 16/33/24 20/11/24 4/10/24
f 16/33/25 13/34/25 20/11/25
f 13/34/26 3/23/26 20/11/26
f 14/35/27 19/8/27 3/7/27
f 14/35/28 11/36/28 19/8/28
f 11/36/29 2/4/29 19/8/29
f 12/37/30 18/5/30 2/4/30
f 12/37/31 9/38/31 18/5/31
f 9/38/32 1/39/32 18/5/32
f 10/40/33 17/30/33 1/41/33
f 10/40/34 7/42/34 17/30/34
f 7/42/35 5/13/35 17/30/35
f 15/43/36 16/33/36 4/10/36
f 7/44/37 10/45/37 35/46/37 36/47/37
f 13/34/38 14/48/38 3/23/38
f 11/36/39 12/37/39 2/4/39
f 9/49/40 10/45/40 1/50/40
f 7/42/41 8/31/41 5/13/41
f 27/51/42 36/52/42 35/53/42 34/54/42 33/55/42 32/56/42 31/57/42 30/58/42 29/59/42 28/60/42
f 9/49/43 12/61/43 33/62/43 34/63/43
f 12/37/44 11/36/44 32/64/44 33/65/44
f 11/36/45 14/35/45 31/66/45 32/64/45
f 13/34/46 16/33/46 29/67/46 30/68/46
f 15/69/47 8/70/47 27/51/47 28/60/47
f 10/45/48 9/49/48 34/63/48 35/46/48
f 16/33/49 15/43/49 28/71/49 29/67/49
f 8/31/50 7/42/50 36/72/50 27/73/50
f 14/48/51 13/34/51 30/68/51 31/74/51
