# Blender v2.78 (sub 0) OBJ File: 'low+poly+forest+assets+1+.blend'
# www.blender.org
mtllib flatRock.mtl
o rock_3_Icosphere
v -0.325751 -0.858927 1.094852
v -0.067029 -0.794474 0.116457
v -1.064559 -0.913251 0.727784
v -1.171331 -0.874479 -0.357469
v -0.609392 -0.781582 -0.821283
v 0.283173 -0.460248 0.099350
v -0.194284 -0.401873 1.813600
v -1.345982 -0.497782 1.127723
v -1.616304 -0.447548 -0.607134
v -0.624621 -0.433271 -1.315156
v 0.253491 -0.138909 1.209350
v -0.813726 -0.083547 1.773910
v -1.693383 -0.142113 0.290915
v -1.230744 -0.142055 -1.173569
v -0.070075 -0.209078 -0.834153
v -0.086330 0.185620 0.749527
v -0.717955 0.266862 1.166573
v -1.294394 0.236741 0.198160
v -1.028201 0.169583 -0.695652
v -0.233025 0.076878 -0.463094
v -0.703855 -0.903263 0.930056
v -0.127779 -0.854159 0.666589
v -0.232772 -0.702562 1.531233
v 0.145314 -0.652703 0.124274
v -0.331342 -0.805893 -0.435606
v -1.142663 -0.928484 0.181039
v -1.259506 -0.780863 0.992695
v -0.881537 -0.845155 -0.634231
v -1.433858 -0.729534 -0.526273
v -0.623998 -0.633067 -1.167092
v 0.367234 -0.339928 0.678107
v 0.153690 -0.328541 -0.455930
v -0.509681 -0.238784 1.910336
v 0.083817 -0.233215 1.658560
v -1.554599 -0.329924 0.743075
v -1.107272 -0.293949 1.499760
v -1.481848 -0.258342 -0.971967
v -1.744843 -0.308768 -0.177843
v -0.347333 -0.311233 -1.167132
v -0.911620 -0.313739 -1.332129
v 0.119943 0.091472 1.049990
v -0.778486 0.186555 1.608175
v -1.574840 0.141792 0.269014
v -1.192987 0.074649 -0.990920
v -0.107644 -0.034812 -0.673507
v -0.386921 0.258498 1.036980
v -0.101636 0.118882 0.077673
v -0.998604 0.240090 0.660032
v -1.198828 0.224368 -0.292727
v -0.611178 0.125436 -0.641197
v -0.606905 -0.935936 0.110073
v 0.218890 -0.633396 1.126845
v -0.803887 -0.682310 1.568542
v -1.573439 -0.736956 0.261064
v -1.114853 -0.616509 -1.140586
v -0.150169 -0.577958 -0.828317
v -0.241780 0.154730 1.783457
v -1.291777 0.087554 1.089676
v -1.636861 0.094193 -0.539185
v -0.624609 -0.044993 -1.154934
v 0.256929 -0.066899 0.084478
v -0.621791 0.212410 0.099301
vt 0.0908 0.5887
vt 0.0853 0.5771
vt 0.0896 0.5392
vt 0.0954 0.5703
vt 0.1007 0.5985
vt 0.0909 0.6100
vt 0.0799 0.6107
vt 0.0983 0.5446
vt 0.1022 0.5481
vt 0.0959 0.5158
vt 0.1002 0.4983
vt 0.0803 0.5639
vt 0.0809 0.5371
vt 0.0752 0.5769
vt 0.0736 0.5365
vt 0.0822 0.5111
vt 0.0878 0.5008
vt 0.0781 0.4978
vt 0.0859 0.4726
vt 0.0928 0.4946
vt 0.0940 0.4730
vt 0.1289 0.4907
vt 0.1282 0.4736
vt 0.1354 0.4599
vt 0.1328 0.4924
vt 0.1315 0.5234
vt 0.1262 0.5067
vt 0.1230 0.4929
vt 0.0906 0.6231
vt 0.0848 0.6297
vt 0.0960 0.6257
vt 0.0898 0.6412
vt 0.1084 0.5390
vt 0.1113 0.5595
vt 0.1026 0.5787
vt 0.1025 0.5411
vt 0.1050 0.5042
vt 0.1115 0.5174
vt 0.1204 0.5363
vt 0.1094 0.6109
vt 0.1130 0.6243
vt 0.1050 0.6271
vt 0.1036 0.6055
vt 0.1118 0.5991
vt 0.1190 0.6114
vt 0.1292 0.5543
vt 0.1264 0.5407
vt 0.1328 0.5516
vt 0.1335 0.5754
vt 0.1285 0.5687
vt 0.1222 0.5568
vt 0.0560 0.4864
vt 0.0488 0.4669
vt 0.0580 0.4739
vt 0.0643 0.4997
vt 0.0690 0.5299
vt 0.0554 0.4965
vt 0.0411 0.4708
vt 0.1147 0.4977
vt 0.1120 0.4791
vt 0.1211 0.4599
vt 0.1206 0.4973
vt 0.1145 0.5801
vt 0.1206 0.5781
vt 0.1275 0.5821
vt 0.1303 0.5933
vt 0.1253 0.6082
vt 0.1236 0.5840
vt 0.1244 0.5240
vt 0.1215 0.5235
vt 0.0555 0.5141
vt 0.0487 0.5120
vt 0.0621 0.5405
vt 0.0550 0.5551
vt 0.0431 0.5168
vt 0.0446 0.5447
vt 0.0358 0.5355
vt 0.0365 0.4967
vt 0.0454 0.5713
vt 0.0515 0.5873
vt 0.0477 0.6107
vt 0.0398 0.5783
vt 0.0578 0.5978
vt 0.0627 0.5833
vt 0.0675 0.6034
vt 0.0584 0.6181
vt 0.0659 0.5652
vt 0.0705 0.5692
vn 0.1063 -0.9932 0.0473
vn 0.3643 -0.9087 0.2036
vn -0.0205 -0.9434 0.3310
vn 0.5593 -0.8286 -0.0262
vn 0.2534 -0.9632 -0.0890
vn 0.5349 -0.8121 -0.2332
vn -0.0023 -0.9994 0.0350
vn -0.1711 -0.9352 0.3099
vn -0.4106 -0.9057 0.1056
vn -0.0190 -0.9940 -0.1077
vn -0.4273 -0.9008 -0.0775
vn -0.2535 -0.9132 -0.3191
vn 0.1285 -0.9783 -0.1625
vn -0.0529 -0.9188 -0.3912
vn 0.3748 -0.8575 -0.3525
vn 0.8448 -0.5337 -0.0371
vn 0.7818 -0.5491 -0.2955
vn 0.9812 0.0585 -0.1842
vn -0.0157 -0.6384 0.7695
vn 0.6105 -0.5629 0.5571
vn 0.3885 0.0829 0.9177
vn -0.8630 -0.3811 0.3317
vn -0.6520 -0.4395 0.6178
vn -0.8577 0.1120 0.5017
vn -0.6952 -0.5301 -0.4856
vn -0.8459 -0.5171 -0.1306
vn -0.9494 0.0034 -0.3142
vn 0.5545 -0.4768 -0.6821
vn -0.1027 -0.5282 -0.8429
vn 0.2594 0.3684 -0.8927
vn 0.9510 -0.1145 0.2874
vn 0.8791 0.4754 0.0331
vn 0.7430 0.5712 0.3488
vn -0.5251 -0.2838 0.8023
vn -0.2116 0.4736 0.8549
vn -0.7205 0.3592 0.5932
vn -0.9598 -0.2032 0.1936
vn -0.8810 0.3160 0.3521
vn -0.9444 0.3276 0.0290
vn -0.5375 -0.1884 -0.8220
vn -0.6260 0.5094 -0.5905
vn -0.0764 0.6263 -0.7759
vn 0.8016 -0.1831 -0.5692
vn 0.5245 0.6085 -0.5955
vn 0.8134 0.4568 -0.3602
vn 0.3104 0.9477 0.0750
vn 0.4790 0.8737 -0.0845
vn 0.1636 0.9820 -0.0943
vn -0.3112 0.9420 0.1254
vn 0.0378 0.9879 0.1504
vn 0.0013 0.9987 -0.0508
vn -0.2871 0.9565 -0.0516
vn -0.2703 0.9494 0.1597
vn 0.0327 0.9992 -0.0234
vn 0.1185 0.9355 -0.3329
vn -0.1727 0.9628 -0.2079
vn 0.1035 0.9889 -0.1062
vn 0.4583 0.8700 -0.1817
vn 0.2697 0.9106 -0.3131
vn 0.1747 0.9779 -0.1149
usemtl Material.009
s off
f 1/1/1 21/2/1 51/3/1 22/4/1
f 1/1/2 22/4/2 52/5/2 23/6/2
f 1/1/3 23/6/3 53/7/3 21/2/3
f 2/8/4 24/9/4 52/5/4 22/4/4
f 2/8/5 22/4/5 51/3/5 25/10/5
f 2/8/6 25/10/6 56/11/6 24/9/6
f 3/12/7 26/13/7 51/3/7 21/2/7
f 3/12/8 21/2/8 53/7/8 27/14/8
f 3/12/9 27/14/9 54/15/9 26/13/9
f 4/16/10 28/17/10 51/3/10 26/13/10
f 4/16/11 26/13/11 54/15/11 29/18/11
f 4/16/12 29/18/12 55/19/12 28/17/12
f 5/20/13 25/10/13 51/3/13 28/17/13
f 5/20/14 28/17/14 55/19/14 30/21/14
f 5/20/15 30/21/15 56/11/15 25/10/15
f 6/22/16 31/23/16 52/24/16 24/25/16
f 6/22/17 24/25/17 56/26/17 32/27/17
f 6/22/18 32/27/18 61/28/18 31/23/18
f 7/29/19 33/30/19 53/7/19 23/6/19
f 7/29/20 23/6/20 52/5/20 34/31/20
f 7/29/21 34/31/21 57/32/21 33/30/21
f 8/33/22 35/34/22 54/35/22 27/36/22
f 8/33/23 27/36/23 53/37/23 36/38/23
f 8/33/24 36/38/24 58/39/24 35/34/24
f 9/40/25 37/41/25 55/42/25 29/43/25
f 9/40/26 29/43/26 54/35/26 38/44/26
f 9/40/27 38/44/27 59/45/27 37/41/27
f 10/46/28 39/47/28 56/26/28 30/48/28
f 10/46/29 30/48/29 55/49/29 40/50/29
f 10/46/30 40/50/30 60/51/30 39/47/30
f 11/52/31 34/53/31 52/54/31 31/55/31
f 11/52/32 31/55/32 61/56/32 41/57/32
f 11/52/33 41/57/33 57/58/33 34/53/33
f 12/59/34 36/38/34 53/37/34 33/60/34
f 12/59/35 33/60/35 57/61/35 42/62/35
f 12/59/36 42/62/36 58/39/36 36/38/36
f 13/63/37 38/44/37 54/35/37 35/34/37
f 13/63/38 35/34/38 58/39/38 43/64/38
f 13/63/39 43/64/39 59/45/39 38/44/39
f 14/65/40 40/50/40 55/49/40 37/66/40
f 14/65/41 37/66/41 59/67/41 44/68/41
f 14/65/42 44/68/42 60/51/42 40/50/42
f 15/69/43 32/27/43 56/26/43 39/47/43
f 15/69/44 39/47/44 60/51/44 45/70/44
f 15/69/45 45/70/45 61/28/45 32/27/45
f 16/71/46 46/72/46 57/58/46 41/57/46
f 16/71/47 41/57/47 61/56/47 47/73/47
f 16/71/48 47/73/48 62/74/48 46/72/48
f 17/75/49 48/76/49 58/77/49 42/78/49
f 17/75/50 42/78/50 57/58/50 46/72/50
f 17/75/51 46/72/51 62/74/51 48/76/51
f 18/79/52 49/80/52 59/81/52 43/82/52
f 18/79/53 43/82/53 58/77/53 48/76/53
f 18/79/54 48/76/54 62/74/54 49/80/54
f 19/83/55 50/84/55 60/85/55 44/86/55
f 19/83/56 44/86/56 59/81/56 49/80/56
f 19/83/57 49/80/57 62/74/57 50/84/57
f 20/87/58 47/73/58 61/56/58 45/88/58
f 20/87/59 45/88/59 60/85/59 50/84/59
f 20/87/60 50/84/60 62/74/60 47/73/60
