# Blender v2.78 (sub 0) OBJ File: 'low+poly+forest+assets+1+.blend'
# www.blender.org
mtllib land_forest2.mtl
o Plane.002
v -1.632493 0.010111 8.511731
v -1.271411 0.010253 7.959937
v -2.061913 -0.033528 8.096464
v -2.477271 -0.033691 8.731203
v 3.896777 0.015273 8.709796
v 4.308043 0.011921 9.113232
v 4.356222 -0.031610 9.423119
v 3.883137 -0.027754 8.959040
v 9.012411 0.010573 6.492637
v 9.009903 0.009999 6.137620
v 9.764847 -0.033821 6.000225
v 9.767732 -0.033161 6.408606
v 4.227464 0.008542 7.319710
v 4.575313 -0.002625 7.430684
v 4.663668 -0.048343 7.487657
v 4.263531 -0.035497 7.360002
v 0.460685 0.010996 9.108731
v -0.048502 0.019699 8.566336
v -0.821307 0.029440 8.315168
v 0.637950 0.010686 8.933869
v 1.829790 0.010234 8.503922
v 1.269743 0.029581 6.637534
v -0.477265 0.029846 6.334126
v 1.485151 0.009999 8.909900
v 1.677946 0.010260 8.728440
v 1.867617 0.029980 8.301888
v 2.353137 0.029984 6.880047
v 2.409428 0.010049 6.625554
v 2.582050 0.009785 5.893264
v 1.067641 0.010038 6.193450
v 3.128843 0.027060 8.166720
v 3.084167 0.009877 5.543089
v 2.660924 -0.053917 5.599231
v 3.772309 0.010420 6.137655
v 3.668308 0.008344 6.755872
v 3.236241 0.016951 7.262558
v 3.802241 -0.057380 6.570188
v 3.909454 0.029565 7.593718
v 5.206874 0.006241 8.919088
v 5.959849 0.014047 8.442069
v 5.427897 0.027591 7.582460
v 6.779919 0.029769 7.922078
v 5.975340 0.028246 7.195138
v 6.417831 0.012027 8.897545
v 5.971379 0.010721 8.906733
v 1.330780 -0.033521 8.980487
v 6.636693 0.029962 3.973764
v 6.042049 -0.077505 4.139939
v 6.562479 0.011505 5.166316
v 7.149406 0.029751 6.095849
v 6.595079 0.002242 6.590306
v 6.588195 0.008289 5.552104
v 8.182048 0.029862 4.703184
v 8.638986 0.005318 6.868402
v 8.604746 0.009035 7.096024
v 9.298788 -0.034930 7.102692
v 9.338176 -0.039205 6.840854
v 7.990828 0.028401 7.002873
v 7.570054 0.003449 7.916231
v 8.811235 0.010285 5.975904
v 8.341009 0.010057 4.579865
v 8.795891 0.010009 3.299716
v 7.260011 0.012505 3.498739
v -1.023099 0.009999 8.909900
v -1.168481 0.021982 6.936154
v 1.482223 0.008896 5.817496
v 1.697759 -0.055976 5.742664
v 3.004021 -0.068628 5.312928
v 3.699186 -0.005434 5.532890
v 3.657638 -0.110418 5.122260
v 9.536317 -0.033491 5.814200
v 9.518664 -0.033808 2.735738
v -2.012063 0.009999 8.317275
v -2.913897 -0.033820 8.507517
v 3.655844 -0.051574 5.304594
v 3.608051 -0.172339 4.832240
v 7.185477 0.010944 8.118083
v 2.856185 -0.124266 5.051569
v 2.461516 -0.107344 5.380907
v 1.353571 -0.109713 5.545900
v -2.763346 -0.033821 8.733651
v -2.070081 -0.027466 9.179630
v -1.776276 -0.033821 9.189222
v -1.624418 -0.033822 9.417008
v -0.069454 -0.032675 9.417942
v 6.949536 -0.032088 4.882917
v 5.927685 -0.033911 4.178212
v 6.979117 -0.035787 5.326696
v 7.942564 -0.033821 8.278081
v 8.108565 -0.041355 8.046188
v 7.666181 -0.032733 8.278383
v 5.209140 -0.033822 9.417008
v 5.390162 -0.038143 9.199792
v 6.879457 -0.033807 3.342620
v 5.115559 -0.034727 3.966825
v 8.333658 -0.030575 8.051201
v 5.049507 0.009999 9.107920
v -1.881185 0.009999 8.513860
v 7.751919 -0.030937 2.964677
v -1.943511 -0.020036 6.918791
v -1.278512 0.015523 8.901561
v -0.891086 0.009999 9.107920
v 4.968154 0.009211 4.369932
v 5.674157 0.009920 4.553696
v 5.644408 -0.013584 7.662247
v -1.148394 -0.010990 6.226268
v 3.739959 -0.033337 6.000264
v 6.269585 -0.032990 9.185579
v 0.134455 -0.033031 9.216795
v 3.774390 -0.111328 6.497814
v 6.274140 -0.012831 7.216704
v 0.628736 -0.033776 6.064446
v 6.783145 -0.031488 9.175011
v 1.109004 -0.033821 9.189222
v 1.105637 -0.035089 5.631980
v 7.425744 0.009999 8.117820
v 6.987036 -0.042744 6.520957
v 7.765732 0.012820 7.920588
vn -0.0622 0.9972 -0.0405
vn 0.1493 -0.9757 -0.1603
vn -0.0576 -0.9983 0.0020
vn 0.2398 -0.5411 -0.8061
vn 0.0103 0.9999 0.0064
vn 0.0070 0.9999 0.0112
vn 0.0106 0.9999 0.0061
vn 0.0086 0.9999 0.0083
vn 0.0055 0.9999 0.0142
vn -0.0094 1.0000 -0.0016
vn -0.0002 1.0000 -0.0000
vn -0.0111 0.9999 -0.0018
vn -0.0027 1.0000 -0.0016
vn -0.0040 1.0000 -0.0028
vn -0.0029 1.0000 -0.0018
vn -0.0004 1.0000 -0.0003
vn 0.0021 1.0000 0.0007
vn 0.0163 0.9971 -0.0745
vn 0.0001 1.0000 0.0020
vn -0.0003 1.0000 -0.0024
vn -0.0002 1.0000 -0.0020
vn 0.0130 0.9949 0.0997
vn 0.0087 0.9951 0.0989
vn 0.0126 0.9949 0.0996
vn 0.0024 1.0000 0.0008
vn -0.1770 0.9510 -0.2535
vn -0.1771 0.9506 -0.2550
vn -0.1776 0.9491 -0.2601
vn 0.0003 1.0000 0.0016
vn -0.0004 1.0000 -0.0004
vn 0.0090 0.9999 -0.0093
vn 0.0035 0.9999 -0.0140
vn 0.0083 0.9999 -0.0099
vn 0.5403 0.8363 0.0937
vn 0.0412 0.9987 -0.0288
vn 0.0045 0.9999 0.0131
vn 0.0020 0.9999 0.0151
vn 0.0059 0.9999 0.0130
vn -0.0034 0.9998 0.0179
vn -0.0035 0.9998 0.0179
vn -0.0003 0.9999 0.0159
vn -0.0013 1.0000 -0.0007
vn 0.0005 1.0000 0.0002
vn -0.0015 1.0000 -0.0004
vn -0.0020 1.0000 0.0064
vn -0.0040 1.0000 0.0091
vn -0.0043 1.0000 0.0073
vn -0.0008 0.9854 0.1701
vn -0.1767 0.9843 0.0042
vn -0.5685 0.5559 -0.6064
vn -0.0493 0.9987 0.0113
vn -0.0505 0.9986 0.0123
vn -0.0498 0.9987 0.0118
vn -0.0441 0.9990 0.0061
vn -0.0452 0.9990 0.0071
vn 0.0006 1.0000 0.0006
vn 0.0000 1.0000 0.0001
vn 0.0000 1.0000 0.0003
vn 0.0633 0.9980 -0.0068
vn -0.0001 1.0000 -0.0010
vn 0.0256 0.9989 0.0391
vn 0.0319 0.9986 0.0419
vn 0.0236 0.9987 0.0441
vn 0.0363 0.9993 0.0037
vn -0.0029 1.0000 0.0008
vn -0.0063 1.0000 0.0025
vn -0.0108 0.9999 0.0035
vn 0.0003 1.0000 0.0001
vn 0.0017 1.0000 0.0006
vn -0.0173 0.9995 0.0268
vn -0.0167 0.9995 0.0258
vn -0.0165 0.9995 0.0269
vn -0.0282 0.9994 -0.0182
vn -0.0540 0.9985 0.0059
vn -0.0478 0.9988 0.0066
vn -0.0492 0.9988 0.0065
vn -0.0048 0.9995 0.0310
vn -0.0132 0.9999 -0.0021
vn 0.0083 0.9951 0.0988
vn -0.0000 0.9992 0.0388
vn 0.0085 0.9988 -0.0478
vn 0.0096 0.9988 -0.0483
vn 0.0153 0.9986 -0.0509
vn 0.0008 1.0000 0.0013
vn 0.0166 0.9985 -0.0515
vn -0.0006 1.0000 -0.0037
vn 0.0398 0.8089 -0.5867
vn -0.0349 0.9748 -0.2205
vn -0.0332 0.9773 -0.2094
vn -0.0345 0.9754 -0.2175
vn -0.0157 0.9998 -0.0108
vn 0.0443 0.9967 -0.0683
vn 0.0186 0.9998 -0.0090
vn -0.1777 0.9487 -0.2617
vn -0.0021 0.9997 0.0246
vn -0.0003 0.9614 -0.2752
vn -0.0125 0.9998 -0.0127
vn 0.0121 0.9980 -0.0626
vn 0.0029 0.9999 -0.0145
vn 0.0010 1.0000 0.0035
vn 0.0244 0.9993 -0.0291
vn 0.1982 0.9602 -0.1969
vn 0.0062 0.9999 0.0129
vn -0.0002 0.9809 -0.1944
vn 0.0602 0.9982 -0.0004
vn 0.0014 0.9999 0.0162
vn 0.0844 -0.9811 0.1743
vn -0.0057 1.0000 0.0073
vn -0.0066 0.9998 0.0198
vn -0.4990 -0.8261 0.2617
vn 0.0312 0.9985 0.0441
vn 0.0226 0.9985 0.0491
vn -0.2668 0.8846 -0.3826
vn 0.0029 1.0000 0.0015
vn 0.0107 0.9997 -0.0226
vn 0.0708 0.9951 -0.0685
vn 0.0015 0.9779 -0.2090
vn 0.0332 0.9994 -0.0113
vn 0.1139 0.9934 -0.0128
vn -0.0476 -0.9973 0.0567
vn -0.0332 0.9774 -0.2089
vn -0.0003 1.0000 0.0001
vn -0.0004 1.0000 0.0001
vn -0.0005 1.0000 0.0003
vn -0.0003 1.0000 0.0000
vn 0.0227 0.9991 -0.0345
vn -0.0007 1.0000 0.0005
vn -0.0021 1.0000 0.0006
vn -0.0052 1.0000 0.0050
vn -0.0079 0.9999 0.0089
vn 0.0039 0.9996 -0.0297
vn 0.0056 1.0000 -0.0031
vn -0.0010 1.0000 -0.0010
vn -0.0008 1.0000 -0.0008
vn -0.0466 0.9976 -0.0520
vn -0.0105 0.9999 0.0035
vn 0.0028 1.0000 -0.0016
vn -0.0036 -0.9903 -0.1386
vn -0.0013 -0.9797 -0.2004
vn -0.0101 0.9959 -0.0903
vn -0.0543 0.9985 0.0060
vn -0.0202 0.9854 0.1690
vn -0.0149 -0.9809 -0.1940
vn -0.0665 -0.9946 -0.0800
vn 0.0008 -0.9904 -0.1385
vn 0.0249 0.9947 -0.0993
vn -0.0370 0.9977 0.0569
vn 0.1569 -0.6371 -0.7546
vn -0.0158 0.9935 0.1132
vn -0.0400 -0.9987 -0.0326
vn -0.0530 0.9974 -0.0478
vn 0.9261 -0.3630 -0.1025
vn 0.0740 0.9951 -0.0662
vn -0.0004 0.9879 0.1554
vn -0.0032 0.9874 0.1582
vn -0.0025 0.9875 0.1575
vn 0.1959 -0.9600 0.2003
vn 0.9375 -0.3280 -0.1163
vn -0.1218 -0.9772 -0.1738
vn -0.1125 -0.9937 -0.0008
vn -0.0549 -0.9984 0.0145
vn -0.0209 -0.9997 0.0161
vn 0.0425 -0.9987 -0.0283
vn -0.0133 0.9597 -0.2808
vn 0.8371 0.2324 -0.4953
vn 0.0003 0.9880 0.1546
vn 0.0448 -0.9986 -0.0268
vn -0.0858 0.9926 -0.0854
vn 0.0054 0.9868 0.1621
vn -0.1185 -0.9898 -0.0791
vn -0.0742 0.9936 -0.0849
vn 0.1710 0.9843 0.0440
vn 0.0466 -0.9984 -0.0310
vn 0.4278 -0.7820 0.4534
vn 0.1141 0.8895 -0.4425
vn 0.0260 -0.9992 0.0293
vn -0.0041 -0.9679 -0.2515
vn -0.1293 -0.9875 -0.0900
vn 0.0684 0.9955 0.0660
vn 0.0525 -0.8569 -0.5128
vn -0.1149 -0.9934 -0.0050
vn -0.0774 -0.9967 -0.0230
vn 0.0622 0.9944 0.0852
vn -0.0900 0.9833 -0.1584
vn 0.0628 0.9946 0.0827
vn -0.0625 -0.9963 -0.0591
vn 0.0642 0.9978 0.0180
usemtl None
s 1
f 1//1 2//1 3//1 4//1
f 5//2 6//2 7//2 8//2
f 9//3 10//3 11//3 12//3
f 13//4 14//4 15//4 16//4
f 17//5 18//6 19//7
f 17//5 20//8 18//6
f 20//8 21//9 18//6
f 19//10 22//11 23//12
f 24//13 25//14 21//15
f 26//16 27//17 22//11
f 27//18 28//18 22//18
f 28//19 29//20 30//21
f 31//22 26//23 21//24
f 31//25 27//17 26//16
f 29//26 32//27 33//28
f 34//29 32//30 28//19
f 13//31 35//32 36//33
f 37//34 34//34 35//34
f 14//35 13//35 38//35
f 39//36 38//37 5//38
f 40//39 41//40 39//41
f 42//42 43//43 41//44
f 44//45 40//46 45//47
f 5//48 25//48 46//48 8//48
f 47//49 48//49 49//49
f 43//50 50//50 51//50
f 50//51 47//52 49//53
f 51//54 50//51 52//55
f 50//51 49//53 52//55
f 53//56 47//57 50//58
f 54//59 55//59 56//59 57//59
f 58//60 50//58 43//43
f 55//61 58//62 59//63
f 54//64 53//64 58//64
f 60//65 61//66 54//67
f 62//68 63//69 61//66
f 1//70 64//71 19//72
f 1//73 19//73 2//73
f 2//74 19//75 65//76
f 64//71 17//77 19//72
f 65//78 19//10 23//12
f 18//79 21//24 26//23
f 18//80 26//80 19//80
f 19//10 26//16 22//11
f 23//81 22//82 30//83
f 20//84 24//13 21//15
f 22//82 28//85 30//83
f 30//21 29//20 66//86
f 66//87 29//87 67//87
f 29//88 33//89 67//90
f 25//91 31//91 21//91
f 36//92 28//92 27//92
f 31//93 36//93 27//93
f 33//28 32//27 68//94
f 25//95 5//95 31//95
f 28//19 32//30 29//20
f 68//96 32//96 69//96 70//96
f 31//97 38//97 36//97
f 38//98 13//98 36//98
f 36//33 35//32 28//99
f 35//100 34//29 28//19
f 34//101 69//101 32//101
f 13//102 37//102 35//102
f 5//38 38//37 31//103
f 41//104 14//104 38//104
f 62//105 60//105 71//105 72//105
f 39//36 41//106 38//37
f 2//107 73//107 74//107 3//107
f 45//47 40//46 39//108
f 40//39 42//109 41//40
f 70//110 69//110 75//110 76//110
f 59//63 42//111 40//112 77//112
f 47//113 63//113 48//113
f 44//45 77//114 40//46
f 53//115 63//115 47//115
f 42//42 58//60 43//43
f 42//111 59//63 58//62
f 53//116 61//116 63//116
f 68//117 70//117 76//117 78//117
f 58//60 53//56 50//58
f 55//118 54//118 58//118
f 54//119 61//119 53//119
f 10//120 60//120 71//120 11//120
f 60//65 62//68 61//66
f 67//90 33//89 79//121 80//121
f 4//122 74//123 81//124
f 3//125 74//123 4//122
f 82//126 83//126 4//126
f 84//127 85//127 83//127
f 86//128 87//129 88//130
f 89//131 90//131 91//131
f 8//132 7//132 92//132 93//132
f 87//129 94//133 95//134
f 86//128 94//133 87//129
f 96//135 56//135 90//135
f 12//136 71//136 57//136
f 12//137 11//137 71//137
f 6//138 97//138 92//138 7//138
f 98//139 1//139 4//139 81//139
f 63//140 62//140 72//140 99//140
f 2//74 65//76 100//141 3//141
f 39//142 5//142 8//142 93//142
f 101//143 64//143 83//143 82//143
f 54//144 9//144 12//144 57//144
f 102//145 17//145 85//145 84//145
f 103//146 104//146 87//146 95//146
f 64//147 1//147 4//147 83//147
f 14//148 41//148 105//148 15//148
f 17//149 64//149 83//149 85//149
f 48//150 103//150 95//150 94//150
f 65//151 23//151 106//151 100//151
f 69//152 34//152 107//152 75//152
f 104//153 52//153 88//153 87//153
f 45//154 39//155 93//155 108//156
f 20//157 17//157 85//157 109//157
f 34//158 37//158 110//158 107//158
f 41//159 43//159 111//159 105//159
f 52//160 49//161 86//162 88//160
f 73//163 98//163 81//163 74//163
f 23//164 30//164 112//164 106//164
f 37//165 13//165 16//165 110//165
f 44//166 45//154 108//156 113//166
f 1//167 101//167 82//167 4//167
f 48//168 63//168 99//168 94//168
f 24//169 20//169 109//169 114//169
f 97//170 39//170 93//170 92//170
f 30//171 66//171 115//171 112//171
f 41//172 39//172 93//172 105//172
f 64//173 102//173 84//173 83//173
f 25//174 24//174 114//174 46//174
f 66//175 67//175 80//175 115//175
f 49//161 48//176 94//176 86//162
f 77//177 116//177 89//177 91//177
f 43//178 51//178 117//178 111//178
f 77//179 44//179 113//179 91//179
f 59//180 118//180 96//180 90//180
f 51//181 52//181 88//181 117//181
f 116//182 59//182 90//182 89//182
f 55//183 59//183 90//183 56//183
f 33//184 68//184 78//184 79//184
f 59//185 77//185 91//185 90//185
f 118//186 55//186 56//186 96//186
f 60//187 54//187 57//187 71//187
