# Blender v2.78 (sub 0) OBJ File: 'land.blend'
# www.blender.org
mtllib land_forest.mtl
o Plane
v -10.000000 1.632342 9.900000
v -2.475249 0.000000 -9.109903
v -1.881191 0.000000 -9.307922
v -1.231702 0.000144 -9.315545
v -2.076380 0.000351 -9.130639
v -21.321186 2.582840 23.379263
v -1.089112 0.000000 -9.505941
v -0.330091 0.000423 -9.505555
v -0.471339 0.002054 -8.020793
v -0.203571 0.020149 -8.020793
v -2.679689 0.000035 -8.920277
v 0.698271 0.000022 -6.733951
v -0.135878 0.000594 -9.327528
v 0.880190 0.019988 -6.831819
v 0.475467 0.003336 -9.076993
v 1.453225 0.028008 -7.523157
v 1.456431 0.009656 -6.498877
v 1.941177 0.001165 -9.311017
v 2.356661 0.000349 -5.777808
v 2.125370 0.000553 -9.503842
v 2.771357 0.039606 -6.663949
v 2.452977 0.022423 -6.342585
v 3.135569 0.000000 -9.506211
v 2.091366 0.032580 -8.193413
v 1.831667 0.019634 -9.038412
v 3.939557 0.003950 -9.211001
v 3.311345 0.000261 -9.704300
v 4.354722 0.020027 -8.310492
v 4.455441 0.000000 -9.703961
v 4.653461 0.000000 -9.505941
v 5.096778 0.004191 -8.983700
v 5.026405 0.001071 -9.492696
v 5.192854 0.007277 -9.364409
v 5.700081 0.003525 -8.797900
v 5.619277 0.001284 -9.294499
v 5.318928 0.020037 -5.926732
v 6.105611 0.039979 -6.535645
v 6.071943 0.019611 -6.322508
v 5.789646 0.001090 -9.135212
v 5.837838 0.009818 -5.474842
v 6.237621 0.000000 -9.109903
v 6.892292 0.020184 -5.224516
v 6.580645 0.040194 -5.799278
v 4.116086 0.038277 -8.062327
v 6.383169 0.017018 -8.358731
v 6.435642 0.000000 -8.911883
v 6.638915 0.000009 -5.116593
v 6.821871 0.026552 -8.190286
v 6.723584 0.000734 -8.566262
v 7.296170 0.024921 -5.701045
v 7.668473 0.027916 -7.344118
v 7.780490 0.020019 -8.516390
v 7.940537 0.021050 -5.426792
v 8.090142 0.018872 -6.484135
v 8.054317 0.000189 -7.246375
v 7.666649 -0.001613 -8.902569
v 7.985769 0.000109 -5.044489
v 8.597034 0.000345 -6.334267
v 8.778321 -0.004847 -5.733655
v 8.812149 0.000955 -6.075595
v 8.623755 0.001680 -7.751693
v 8.811883 0.000000 -7.921783
v 8.811883 0.000000 -8.119803
v 8.543468 0.001329 -7.934495
v 7.863347 0.000077 -9.113683
v 9.017871 0.000798 -5.298031
v 9.009903 0.000000 -5.545546
v 9.009903 0.000000 -8.317823
v 9.014942 0.000847 -8.562728
v 9.204923 -0.000273 -9.100293
v 9.207922 0.000000 -5.149507
v 9.207922 0.000000 -8.713863
v 13.441324 -0.306024 -2.277979
v 12.783175 -0.308461 -2.882534
v 12.753125 -0.312889 -9.641209
v 9.224862 0.002496 -4.903952
v 12.753125 -0.312889 -3.318141
v 12.747804 -0.313373 -10.326726
v 12.410784 -0.311385 -9.373100
v 12.401844 -0.312889 -8.938645
v 12.401844 -0.312889 -4.020704
v 12.415979 -0.311474 -3.581620
v 10.367887 -0.312753 -10.350479
v 12.050563 -0.312889 -8.587365
v 12.050563 -0.312889 -8.236082
v 11.716827 -0.309908 -7.934348
v 12.051035 -0.311195 -4.960996
v 11.991025 -0.321487 -4.354405
v 11.669426 -0.312276 -5.419874
v 10.585060 -0.312696 -3.131844
v 10.018950 -0.315750 -9.975967
v 8.195779 -0.312872 -3.259755
v 7.835177 -0.312889 -9.992493
v 7.483894 -0.312889 -10.343773
v 6.774691 -0.295471 -3.895278
v 6.689199 -0.310954 -10.388670
v 6.386969 -0.310611 -10.671243
v 5.630507 -0.299979 -10.795261
v 5.335232 -0.310989 -11.022837
v -7.972493 -0.312889 -10.343773
v 9.595865 0.003869 -4.563160
v 4.673640 -0.312889 -11.046333
v 4.322357 -0.312889 -11.397617
v 2.292762 -0.312425 -11.398215
v 1.980942 -0.312888 -11.046814
v 0.188876 -0.311908 -11.042610
v 0.599181 -0.312270 -4.432730
v -0.137877 -0.310822 -10.700544
v -0.997802 -0.295760 -5.711887
v -2.020037 -0.277431 -6.302516
v -3.822515 -0.311836 -10.729833
v -2.342757 -0.312849 -6.128901
v -8.335162 -0.312827 -10.007380
v -4.167042 -0.312138 -11.045650
v -5.513523 -0.312889 -11.046333
v -7.264910 -0.312267 -10.380560
v -5.766476 -0.312633 -10.708577
v -6.918650 -0.312889 -10.695053
vn -0.0027 -0.9707 0.2402
vn -0.0009 1.0000 -0.0012
vn 0.0665 -0.9825 -0.1741
vn -0.0025 1.0000 0.0038
vn -0.0010 1.0000 0.0003
vn -0.0673 0.9958 0.0615
vn -0.0673 0.9960 -0.0591
vn -0.0114 0.9997 -0.0232
vn -0.0066 1.0000 0.0061
vn -0.0053 1.0000 0.0018
vn -0.0099 0.9974 -0.0716
vn 0.0076 0.9998 0.0179
vn -0.0156 0.9997 0.0180
vn 0.0005 0.9999 -0.0148
vn -0.0047 0.9993 0.0383
vn 0.0005 0.9985 0.0539
vn -0.0026 1.0000 -0.0034
vn 0.0058 0.9998 -0.0205
vn -0.0003 0.9973 -0.0736
vn 0.0529 0.9972 -0.0529
vn 0.0036 0.9998 -0.0195
vn 0.0031 1.0000 -0.0066
vn -0.1344 0.9828 0.1269
vn 0.0063 1.0000 -0.0055
vn -0.1182 0.9901 0.0759
vn 0.0149 0.9984 -0.0539
vn 0.0127 0.9998 -0.0127
vn 0.0040 1.0000 -0.0064
vn 0.0015 0.9982 -0.0603
vn 0.0013 1.0000 -0.0032
vn 0.0179 0.9995 0.0251
vn -0.0088 0.9865 0.1637
vn 0.0235 0.9996 -0.0154
vn 0.0045 1.0000 -0.0062
vn 0.0013 0.9999 0.0110
vn 0.0121 0.9999 0.0046
vn 0.0604 0.9972 0.0446
vn 0.0487 0.9976 0.0489
vn 0.0318 0.9995 0.0024
vn 0.0643 0.9975 -0.0275
vn -0.0301 0.9994 0.0177
vn 0.0160 0.9997 0.0160
vn -0.2265 -0.9491 -0.2187
vn -0.1411 0.9781 0.1530
vn -0.0725 0.9851 0.1561
vn 0.0828 -0.9595 -0.2694
vn -0.2218 -0.9437 0.2453
vn 0.0004 -0.9802 0.1978
vn 0.0677 0.9952 0.0707
vn 0.0457 -0.9977 0.0494
vn -0.0946 -0.9955 0.0063
vn 0.0027 -0.9775 0.2107
vn 0.0557 -0.9975 0.0425
vn -0.0850 0.9893 0.1189
vn -0.1232 0.9865 -0.1080
vn -0.2337 -0.9268 0.2941
vn 0.1929 0.9621 -0.1929
vn 0.0984 -0.9949 -0.0201
vn 0.0471 -0.9974 0.0539
vn -0.0965 -0.9952 0.0168
vn 0.1015 0.9786 -0.1791
vn -0.0003 1.0000 -0.0042
vn -0.0779 0.9897 0.1203
vn -0.0049 0.9999 -0.0103
vn -0.0006 1.0000 -0.0012
vn -0.0478 0.9924 0.1136
vn -0.0208 0.9997 0.0149
vn -0.0003 1.0000 -0.0006
vn 0.0015 1.0000 0.0059
vn -0.0002 1.0000 -0.0023
vn 0.0928 0.9957 0.0054
vn -0.0249 0.9877 -0.1545
vn -0.1276 -0.9792 -0.1575
vn 0.0003 0.9834 -0.1817
vn -0.0728 0.9950 0.0677
vn -0.0014 1.0000 -0.0075
vn 0.1115 0.9875 0.1115
vn -0.0002 0.9999 -0.0105
vn -0.0064 0.9999 -0.0133
vn -0.0184 0.9992 0.0359
vn -0.0265 0.9993 0.0272
vn -0.0082 1.0000 -0.0010
vn 0.0020 0.9978 -0.0668
vn -0.0012 1.0000 -0.0043
vn 0.0047 0.9998 -0.0168
vn -0.0037 0.9955 0.0945
vn 0.0008 1.0000 0.0004
vn -0.0041 1.0000 -0.0023
vn 0.0018 0.9974 -0.0716
vn 0.0007 1.0000 -0.0073
vn -0.0001 1.0000 -0.0010
vn -0.0027 1.0000 -0.0058
vn -0.0052 0.9996 0.0286
vn 0.0152 0.9999 -0.0070
vn 0.0028 0.9997 -0.0262
vn 0.0078 0.9999 0.0137
vn 0.0035 1.0000 -0.0052
vn -0.0118 0.9999 0.0083
vn -0.0346 0.9939 0.1046
vn -0.1686 0.9777 0.1254
vn 0.0051 0.9975 -0.0698
vn -0.0155 0.9982 -0.0578
vn 0.0047 1.0000 -0.0063
vn 0.0095 0.9985 0.0536
vn 0.0098 0.9999 0.0040
vn 0.0065 1.0000 -0.0011
vn 0.0787 0.9965 -0.0281
vn 0.0276 0.9996 -0.0041
vn 0.0861 0.9930 -0.0810
vn -0.0060 1.0000 0.0024
vn -0.0020 1.0000 0.0007
vn 0.0001 0.9800 -0.1991
vn 0.0050 1.0000 -0.0020
vn 0.0605 0.9899 -0.1279
vn 0.0004 1.0000 -0.0005
vn 0.0112 -0.9800 0.1987
vn 0.0015 0.9752 -0.2212
vn -0.2167 -0.9319 0.2908
vn -0.1340 -0.9844 0.1138
vn -0.0876 -0.9962 0.0014
vn 0.1004 0.9949 0.0028
vn 0.0459 0.9795 -0.1963
vn 0.1059 0.9886 0.1074
vn 0.1242 0.9845 -0.1242
vn 0.0962 0.9954 0.0000
vn 0.0154 0.9728 -0.2311
vn -0.0896 0.9920 -0.0887
vn -0.0094 0.9847 0.1738
vn -0.0872 -0.9959 -0.0255
vn 0.1371 0.9798 -0.1455
vn 0.0043 0.9800 -0.1990
vn -0.0202 0.9793 0.2012
vn 0.0033 0.9617 -0.2741
vn 0.1083 0.9938 -0.0241
vn 0.0006 1.0000 -0.0019
vn -0.0017 1.0000 -0.0022
vn -0.0974 0.9648 0.2443
vn -0.0011 1.0000 -0.0038
usemtl None
s off
f 70//1 65//1 83//1 78//1
f 113//2 116//2 100//2
f 12//3 17//3 109//3 112//3
f 12//4 9//4 11//4
f 9//5 15//5 11//5
f 14//6 10//6 9//6
f 10//7 15//7 9//7
f 10//8 25//8 15//8
f 16//9 10//9 14//9
f 16//10 24//10 10//10
f 25//11 18//11 15//11
f 17//12 16//12 14//12
f 17//13 22//13 16//13
f 26//14 23//14 20//14
f 19//15 36//15 22//15
f 22//16 38//16 21//16
f 21//17 44//17 24//17
f 28//18 26//18 25//18
f 44//19 45//19 28//19
f 30//20 29//20 31//20
f 28//21 31//21 26//21
f 34//22 32//22 31//22
f 33//23 32//23 34//23
f 34//24 39//24 35//24
f 43//25 37//25 38//25
f 45//26 49//26 34//26
f 46//27 41//27 49//27
f 37//28 48//28 44//28
f 44//29 48//29 45//29
f 49//30 56//30 46//30
f 50//31 43//31 42//31
f 57//32 42//32 47//32
f 50//33 37//33 43//33
f 51//34 48//34 37//34
f 53//35 50//35 42//35
f 54//36 51//36 50//36
f 55//37 64//37 51//37
f 57//38 59//38 53//38
f 59//39 54//39 53//39
f 59//40 55//40 54//40
f 58//41 55//41 59//41
f 63//42 68//42 64//42
f 56//43 65//43 83//43 91//43
f 13//44 8//44 114//44 111//44
f 17//45 14//45 110//45 109//45
f 57//46 101//46 73//46 90//46
f 101//47 76//47 74//47 73//47
f 8//48 7//48 115//48 114//48
f 59//49 57//49 90//49 88//49
f 2//50 11//50 113//50 100//50
f 66//51 67//51 81//51 82//51
f 4//52 3//52 118//52 117//52
f 7//53 4//53 117//53 115//53
f 19//54 17//54 109//54 107//54
f 23//55 27//55 104//55 105//55
f 71//56 66//56 82//56 77//56
f 29//57 30//57 102//57 103//57
f 14//58 12//58 112//58 110//58
f 3//59 5//59 116//59 118//59
f 76//60 71//60 77//60 74//60
f 32//61 33//61 98//61 99//61
f 82//62 90//62 74//62 77//62
f 12//63 11//63 113//63 112//63
f 88//64 90//64 82//64 81//64
f 117//65 114//65 115//65
f 109//66 110//66 112//66
f 87//67 89//67 88//67
f 113//68 111//68 114//68
f 116//69 113//69 117//69
f 116//70 117//70 118//70
f 69//71 68//71 80//71 79//71
f 11//72 13//72 111//72 113//72
f 69//73 72//73 75//73 79//73
f 27//74 29//74 103//74 104//74
f 12//75 14//75 9//75
f 11//76 15//76 13//76
f 68//77 63//77 84//77 80//77
f 15//78 18//78 13//78
f 24//79 25//79 10//79
f 19//80 22//80 17//80
f 22//81 21//81 16//81
f 16//82 21//82 24//82
f 25//83 26//83 18//83
f 18//84 26//84 20//84
f 24//85 28//85 25//85
f 21//86 38//86 37//86
f 22//87 36//87 38//87
f 23//88 26//88 27//88
f 24//89 44//89 28//89
f 29//90 27//90 26//90 31//90
f 21//91 37//91 44//91
f 31//92 32//92 30//92
f 19//93 40//93 36//93
f 34//94 35//94 33//94
f 31//95 28//95 45//95 34//95
f 40//96 38//96 36//96
f 41//97 39//97 34//97 49//97
f 42//98 38//98 40//98
f 47//99 42//99 40//99
f 42//100 43//100 38//100
f 48//101 49//101 45//101
f 49//102 48//102 52//102 56//102
f 51//103 52//103 48//103
f 57//104 53//104 42//104
f 50//105 51//105 37//105
f 53//106 54//106 50//106
f 54//107 55//107 51//107
f 51//108 64//108 52//108
f 64//109 56//109 52//109
f 64//110 65//110 56//110
f 64//111 55//111 58//111 61//111
f 20//112 23//112 105//112 106//112
f 64//113 61//113 62//113 63//113
f 65//114 69//114 79//114 83//114
f 65//115 64//115 68//115 69//115
f 5//116 2//116 100//116 116//116
f 13//117 18//117 108//117 111//117
f 67//118 59//118 88//118 81//118
f 60//119 58//119 89//119 87//119
f 72//120 70//120 78//120 75//120
f 61//121 58//121 89//121 86//121
f 33//122 35//122 97//122 98//122
f 62//123 61//123 86//123 85//123
f 41//124 46//124 93//124 94//124
f 63//125 62//125 85//125 84//125
f 39//126 41//126 94//126 96//126
f 18//127 20//127 106//127 108//127
f 57//128 47//128 92//128 90//128
f 59//129 60//129 87//129 88//129
f 35//130 39//130 96//130 97//130
f 30//131 32//131 99//131 102//131
f 40//132 19//132 107//132 95//132
f 46//133 56//133 91//133 93//133
f 58//134 59//134 88//134 89//134
f 83//135 79//135 75//135 78//135
f 73//136 74//136 90//136
f 47//137 40//137 95//137 92//137
f 117//138 113//138 114//138
l 1 6
