# Blender v2.78 (sub 0) OBJ File: 'low+poly+forest+assets+1+.blend'
# www.blender.org
mtllib rock1.mtl
o rock_2_Icosphere.001
v -1.160276 -0.694588 0.640170
v -0.413796 -0.593702 0.872762
v -0.834917 -0.732149 -0.081151
v 0.048877 -0.674000 -0.207195
v 0.326547 -0.546734 0.327045
v -0.475673 -0.362636 1.045758
v -1.661874 -0.446263 0.629626
v -1.254448 -0.391794 -0.400505
v 0.293107 -0.329215 -0.644175
v 0.580248 -0.286536 0.223455
v -1.150168 -0.259267 0.958080
v -1.651274 -0.161160 0.046057
v -0.436636 -0.091081 -0.682027
v 0.651580 -0.086709 -0.290659
v 0.208160 -0.157690 0.677953
v -0.669311 0.033343 0.733643
v -1.026966 0.142631 0.241293
v -0.281138 0.239090 -0.185143
v 0.392094 0.158933 0.030621
v 0.085988 0.045215 0.640597
v -1.007266 -0.720587 0.288868
v -0.794398 -0.677589 0.842101
v -1.536604 -0.607676 0.664724
v -0.493574 -0.485883 1.001349
v 0.029580 -0.573347 0.623509
v -0.353370 -0.735224 -0.149210
v -1.109388 -0.631619 -0.314130
v 0.248233 -0.625474 0.084542
v 0.161294 -0.557826 -0.501092
v 0.510749 -0.419891 0.250056
v -0.853747 -0.337693 1.094574
v -0.061894 -0.245019 0.884232
v -1.712953 -0.329514 0.310126
v -1.480089 -0.345655 0.852886
v -0.894279 -0.249140 -0.587272
v -1.549547 -0.246875 -0.179014
v 0.573722 -0.165684 -0.506863
v -0.009570 -0.230173 -0.736408
v 0.438770 -0.204146 0.471216
v 0.652610 -0.218454 -0.039913
v -0.955757 -0.093893 0.810475
v -1.438688 0.039922 0.090120
v -0.389200 0.153900 -0.518336
v 0.556086 0.074837 -0.204730
v 0.139124 -0.056626 0.647398
v -0.840505 0.094179 0.531366
v -0.232475 0.056881 0.768847
v -0.681911 0.214637 0.070062
v 0.170675 0.222035 -0.070825
v 0.269559 0.110127 0.385652
v -0.281638 -0.721073 0.420869
v -1.209657 -0.549723 1.076669
v -1.594934 -0.573444 0.115940
v -0.453841 -0.592242 -0.621458
v 0.577072 -0.435945 -0.215699
v 0.203614 -0.374250 0.696105
v -1.446637 -0.093539 0.510760
v -1.172624 0.087344 -0.311357
v 0.349965 0.109323 -0.566901
v 0.494077 -0.039337 0.238518
v -0.371196 -0.120460 0.930803
v -0.152126 0.186759 0.471475
vt 0.7966 0.8237
vt 0.7883 0.8171
vt 0.7981 0.7975
vt 0.8052 0.8147
vt 0.8080 0.8299
vt 0.7938 0.8382
vt 0.7780 0.8339
vt 0.8092 0.8041
vt 0.8127 0.8088
vt 0.8062 0.7899
vt 0.8095 0.7858
vt 0.7798 0.8097
vt 0.7820 0.7957
vt 0.7685 0.8172
vt 0.7669 0.7961
vt 0.7838 0.7839
vt 0.7934 0.7802
vt 0.7746 0.7784
vt 0.7871 0.7688
vt 0.8006 0.7795
vt 0.7999 0.7719
vt 0.8328 0.8461
vt 0.8317 0.8396
vt 0.8393 0.8325
vt 0.8371 0.8457
vt 0.8360 0.8594
vt 0.8298 0.8529
vt 0.8246 0.8465
vt 0.8791 0.8585
vt 0.8786 0.8675
vt 0.8699 0.8680
vt 0.8737 0.8542
vt 0.8830 0.8390
vt 0.8864 0.8530
vt 0.8889 0.8663
vt 0.8769 0.7838
vt 0.8817 0.7953
vt 0.8660 0.8069
vt 0.8662 0.7858
vt 0.8680 0.7625
vt 0.8832 0.7711
vt 0.8945 0.7849
vt 0.8788 0.8286
vt 0.8859 0.8384
vt 0.8735 0.8390
vt 0.8690 0.8240
vt 0.8821 0.8211
vt 0.8952 0.8307
vt 0.8324 0.8739
vt 0.8294 0.8667
vt 0.8371 0.8739
vt 0.8354 0.8862
vt 0.8300 0.8809
vt 0.8205 0.8752
vt 0.8229 0.8202
vt 0.8258 0.8320
vt 0.8127 0.8315
vt 0.8148 0.8141
vt 0.8178 0.7995
vt 0.8267 0.8135
vt 0.8388 0.8309
vt 0.8813 0.8752
vt 0.8771 0.8792
vt 0.8898 0.8781
vt 0.8898 0.8891
vt 0.8870 0.8089
vt 0.8983 0.8088
vt 0.8251 0.8871
vt 0.8262 0.8937
vt 0.8131 0.8986
vt 0.8181 0.8863
vt 0.8274 0.8599
vt 0.8237 0.8601
vt 0.8279 0.8044
vt 0.8346 0.8084
vt 0.8224 0.7904
vt 0.8274 0.7835
vt 0.8437 0.8126
vt 0.8470 0.8018
vt 0.8612 0.8152
vt 0.8517 0.8268
vt 0.8522 0.7892
vt 0.8468 0.7767
vt 0.8608 0.7703
vt 0.8644 0.7918
vt 0.8426 0.7709
vt 0.8317 0.7752
vt 0.8356 0.7662
vt 0.8500 0.7643
vt 0.8200 0.8599
vt 0.8184 0.8528
vt 0.8179 0.8664
vt 0.8127 0.8589
vn -0.0098 -0.9966 0.0812
vn -0.1592 -0.9422 0.2947
vn -0.2310 -0.9724 -0.0332
vn 0.1269 -0.7441 0.6559
vn 0.2020 -0.9256 0.3200
vn 0.4084 -0.5848 0.7008
vn -0.0044 -0.9996 0.0269
vn -0.2291 -0.9678 -0.1040
vn -0.0666 -0.9535 -0.2939
vn 0.1730 -0.9848 0.0172
vn 0.1080 -0.9422 -0.3170
vn 0.4031 -0.9003 -0.1639
vn 0.2993 -0.9304 0.2114
vn 0.5741 -0.8128 0.0991
vn 0.5881 -0.6397 0.4949
vn 0.1181 -0.3071 0.9443
vn 0.4234 -0.3532 0.8343
vn 0.2026 0.3472 0.9156
vn -0.8543 -0.5195 0.0173
vn -0.7035 -0.3081 0.6404
vn -0.7484 0.5706 0.3381
vn -0.3370 -0.4142 -0.8455
vn -0.6259 -0.5083 -0.5915
vn -0.5126 0.2409 -0.8241
vn 0.5777 -0.6155 -0.5362
vn 0.1577 -0.5204 -0.8392
vn 0.3523 0.1179 -0.9284
vn 0.7703 -0.3127 0.5558
vn 0.8928 -0.4283 0.1393
vn 0.8866 0.2869 0.3629
vn -0.3323 0.4141 0.8474
vn -0.1075 0.7351 0.6694
vn -0.3368 0.7881 0.5152
vn -0.9226 -0.1836 -0.3392
vn -0.7164 0.6624 0.2191
vn -0.6444 0.6408 -0.4174
vn -0.1628 -0.1129 -0.9802
vn -0.2890 0.5017 -0.8154
vn 0.0012 0.4946 -0.8691
vn 0.9515 -0.2434 -0.1883
vn 0.7282 0.5563 -0.4003
vn 0.8809 0.4163 0.2249
vn 0.6330 0.0515 0.7724
vn 0.6061 0.5752 0.5493
vn 0.3625 0.5547 0.7489
vn -0.2698 0.8465 0.4590
vn -0.1054 0.7005 0.7058
vn -0.0874 0.9253 0.3691
vn -0.2257 0.9735 -0.0379
vn -0.3087 0.8999 0.3079
vn -0.1060 0.9704 0.2169
vn 0.0628 0.9720 -0.2266
vn -0.1417 0.9750 -0.1711
vn 0.0043 0.9969 0.0786
vn 0.6884 0.6629 0.2945
vn 0.3242 0.9406 -0.1010
vn 0.2040 0.9601 0.1912
vn 0.3909 0.3854 0.8359
vn 0.6807 0.4150 0.6036
vn 0.2259 0.8798 0.4182
usemtl Material.009
s off
f 1/1/1 21/2/1 51/3/1 22/4/1
f 1/1/2 22/4/2 52/5/2 23/6/2
f 1/1/3 23/6/3 53/7/3 21/2/3
f 2/8/4 24/9/4 52/5/4 22/4/4
f 2/8/5 22/4/5 51/3/5 25/10/5
f 2/8/6 25/10/6 56/11/6 24/9/6
f 3/12/7 26/13/7 51/3/7 21/2/7
f 3/12/8 21/2/8 53/7/8 27/14/8
f 3/12/9 27/14/9 54/15/9 26/13/9
f 4/16/10 28/17/10 51/3/10 26/13/10
f 4/16/11 26/13/11 54/15/11 29/18/11
f 4/16/12 29/18/12 55/19/12 28/17/12
f 5/20/13 25/10/13 51/3/13 28/17/13
f 5/20/14 28/17/14 55/19/14 30/21/14
f 5/20/15 30/21/15 56/11/15 25/10/15
f 6/22/16 31/23/16 52/24/16 24/25/16
f 6/22/17 24/25/17 56/26/17 32/27/17
f 6/22/18 32/27/18 61/28/18 31/23/18
f 7/29/19 33/30/19 53/31/19 23/32/19
f 7/29/20 23/32/20 52/33/20 34/34/20
f 7/29/21 34/34/21 57/35/21 33/30/21
f 8/36/22 35/37/22 54/38/22 27/39/22
f 8/36/23 27/39/23 53/40/23 36/41/23
f 8/36/24 36/41/24 58/42/24 35/37/24
f 9/43/25 37/44/25 55/45/25 29/46/25
f 9/43/26 29/46/26 54/38/26 38/47/26
f 9/43/27 38/47/27 59/48/27 37/44/27
f 10/49/28 39/50/28 56/26/28 30/51/28
f 10/49/29 30/51/29 55/52/29 40/53/29
f 10/49/30 40/53/30 60/54/30 39/50/30
f 11/55/31 34/56/31 52/57/31 31/58/31
f 11/55/32 31/58/32 61/59/32 41/60/32
f 11/55/33 41/60/33 57/61/33 34/56/33
f 12/62/34 36/63/34 53/31/34 33/30/34
f 12/62/35 33/30/35 57/35/35 42/64/35
f 12/62/36 42/64/36 58/65/36 36/63/36
f 13/66/37 38/47/37 54/38/37 35/37/37
f 13/66/38 35/37/38 58/42/38 43/67/38
f 13/66/39 43/67/39 59/48/39 38/47/39
f 14/68/40 40/53/40 55/52/40 37/69/40
f 14/68/41 37/69/41 59/70/41 44/71/41
f 14/68/42 44/71/42 60/54/42 40/53/42
f 15/72/43 32/27/43 56/26/43 39/50/43
f 15/72/44 39/50/44 60/54/44 45/73/44
f 15/72/45 45/73/45 61/28/45 32/27/45
f 16/74/46 46/75/46 57/61/46 41/60/46
f 16/74/47 41/60/47 61/59/47 47/76/47
f 16/74/48 47/76/48 62/77/48 46/75/48
f 17/78/49 48/79/49 58/80/49 42/81/49
f 17/78/50 42/81/50 57/61/50 46/75/50
f 17/78/51 46/75/51 62/77/51 48/79/51
f 18/82/52 49/83/52 59/84/52 43/85/52
f 18/82/53 43/85/53 58/80/53 48/79/53
f 18/82/54 48/79/54 62/77/54 49/83/54
f 19/86/55 50/87/55 60/88/55 44/89/55
f 19/86/56 44/89/56 59/84/56 49/83/56
f 19/86/57 49/83/57 62/77/57 50/87/57
f 20/90/58 47/91/58 61/28/58 45/73/58
f 20/90/59 45/73/59 60/54/59 50/92/59
f 20/90/60 50/92/60 62/93/60 47/91/60
