# Blender v2.78 (sub 0) OBJ File: 'low+poly+forest+assets+1+.blend'
# www.blender.org
mtllib tree2.mtl
o tree_3_Cylinder.012
v 0.137376 -0.458738 -0.325741
v -0.036419 0.441906 -0.299875
v 0.288606 -0.458738 -0.163077
v 0.064870 0.441906 -0.190928
v 0.280520 -0.458738 0.058880
v 0.059454 0.441906 -0.042268
v 0.117855 -0.458738 0.210109
v -0.049493 0.441906 0.059020
v -0.104101 -0.458738 0.202023
v -0.198153 0.441906 0.053605
v -0.255331 -0.458738 0.039359
v -0.299441 0.441906 -0.055343
v -0.247245 -0.458738 -0.182598
v -0.294025 0.441906 -0.204002
v -0.084580 -0.458738 -0.333827
v -0.185078 0.441906 -0.305291
v 0.128524 1.550289 -0.116573
v 0.057547 1.550289 -0.192916
v 0.124729 1.550289 -0.012402
v 0.048385 1.550289 0.058575
v -0.055785 1.550289 0.054780
v -0.126762 1.550289 -0.021564
v -0.122967 1.550289 -0.125735
v -0.046624 1.550289 -0.196711
v -0.001617 2.322334 -0.171951
v -0.069800 2.322334 -0.245289
v -0.005263 2.322334 -0.071879
v -0.078602 2.322334 -0.003696
v -0.178673 2.322334 -0.007342
v -0.246856 2.322334 -0.080681
v -0.243210 2.322334 -0.180752
v -0.169872 2.322334 -0.248935
v 0.150529 3.680736 -0.064513
v 0.084991 3.659914 -0.106542
v 0.152633 3.693131 0.006673
v 0.093068 3.695860 0.060136
v 0.008611 3.692452 0.060919
v -0.055599 3.679069 0.014203
v -0.064569 3.657973 -0.049409
v -0.006943 3.647626 -0.098432
v -0.032945 4.844139 0.061578
v -0.067926 4.841425 -0.007336
v -0.030238 4.842769 0.118216
v -0.061786 4.838508 0.128631
v -0.108296 4.834455 0.092884
v -0.142318 4.832605 0.031992
v -0.144361 4.833495 -0.023679
v -0.113782 4.836899 -0.042082
v -0.003982 3.558448 -0.145544
v 0.082904 3.563327 -0.146368
v -0.063661 3.569291 -0.012724
v -0.063729 3.563287 -0.091770
v 0.077956 3.569578 0.051739
v -0.006183 3.569578 0.048674
v 0.142591 3.569303 -0.089492
v 0.139619 3.569578 -0.005589
v -0.007033 4.004844 1.077524
v 0.077068 4.032437 1.062698
v 0.066457 3.927408 1.136664
v -0.012493 3.910521 1.141818
v 0.025483 4.619991 1.898032
v 0.040404 4.633057 1.924209
v 0.048509 4.591839 1.939579
v 0.029568 4.582563 1.920171
v -0.006091 3.970330 0.973900
v 0.078119 3.992254 0.946982
v 0.065341 3.889651 1.025959
v -0.013553 3.879758 1.047880
v -0.121780 4.944823 0.723966
v -0.078844 4.950550 0.719614
v -0.121355 4.923084 0.658338
v -0.078193 4.928176 0.654613
v 0.016964 3.843309 1.202130
v -0.023312 3.841293 1.199416
v 0.016381 3.823605 1.144397
v -0.023914 3.823834 1.146104
v 0.079081 3.671940 1.453039
v 0.048290 3.667834 1.456159
v 0.078565 3.655028 1.403463
v 0.047725 3.651427 1.406059
v -0.073808 3.914774 1.139279
v -0.074785 3.886431 1.052730
v -0.083777 3.850991 1.192348
v -0.084331 3.834905 1.143229
v -0.392739 3.936888 1.126076
v -0.393282 3.921135 1.077971
v -0.398279 3.901437 1.155572
v -0.398587 3.892497 1.128271
v 0.140552 3.092543 -0.220209
v 0.185910 3.096449 -0.151348
v 0.176659 2.967883 -0.217323
v 0.222921 2.971867 -0.147089
v 0.908080 3.644211 -0.674725
v 0.842815 3.656941 -0.730148
v 0.930447 3.580634 -0.776472
v 0.984207 3.570162 -0.716935
v 1.427740 4.440485 -1.107355
v 1.405838 4.441997 -1.130632
v 1.469014 4.429824 -1.180617
v 1.491170 4.428351 -1.156790
v 0.835189 3.584109 -0.619910
v 0.760210 3.593521 -0.670765
v 0.854016 3.515694 -0.716278
v 0.919109 3.516292 -0.665630
v 0.466110 4.446206 -0.213755
v 0.433898 4.448183 -0.247850
v 0.416331 4.406307 -0.179807
v 0.385082 4.407908 -0.214892
v 1.030465 3.519248 -0.782438
v 1.052128 3.518888 -0.748317
v 0.990610 3.485367 -0.751046
v 1.015183 3.488316 -0.719201
v 0.054800 3.060519 -0.062950
v 0.009442 3.056614 -0.131811
v 0.045549 2.931954 -0.128925
v 0.091811 2.935937 -0.058691
v 0.076370 3.796139 0.013825
v 0.080259 3.793933 -0.070695
v 0.082257 3.640236 -0.011188
v 0.084679 3.638386 -0.101411
v -1.027794 4.207932 -0.175304
v -1.006824 4.230618 -0.087943
v -1.066885 4.132779 -0.130150
v -1.084429 4.117359 -0.198899
v -1.813315 4.829251 -0.074562
v -1.808574 4.831207 -0.046434
v -1.836179 4.795743 -0.045073
v -1.841014 4.793748 -0.073761
v -0.930739 4.166629 -0.165097
v -0.896978 4.183563 -0.076620
v -0.960027 4.092232 -0.134547
v -0.987436 4.087402 -0.212696
v -0.836915 5.227469 -0.155153
v -0.829445 5.229671 -0.113193
v -0.771873 5.207994 -0.156839
v -0.765118 5.209199 -0.115066
v 0.088931 3.762045 -0.052589
v 0.085386 3.761841 0.029608
v 0.090829 3.617976 0.005250
v 0.093010 3.618447 -0.081268
v 0.484340 3.799584 1.201906
v 0.657764 4.345530 2.084636
v -0.117127 3.543446 1.568242
v -0.496442 3.827722 0.812387
v 0.424184 4.417421 0.351001
v 1.158949 4.589346 1.166743
v 0.094695 4.627218 2.247489
v -0.908521 4.620262 1.429688
v -0.288031 4.839864 0.488205
v 0.880423 4.976199 0.793588
v 0.933483 5.108697 1.776577
v 0.122019 5.181353 1.459136
v 0.426975 3.930018 -0.393399
v 1.571435 4.494886 0.371948
v -0.202452 4.767798 0.368064
v -0.481036 4.528478 -1.626518
v 0.829623 4.443120 -2.258619
v 1.962183 4.455475 -0.903690
v 0.577917 5.211334 0.325428
v -0.273302 5.253311 -0.612343
v 0.256416 5.293144 -2.210311
v 1.547381 4.998123 -1.588883
v 2.126160 5.038831 -0.248070
v 0.746326 5.502991 -0.897488
v -1.176145 4.610826 -0.408727
v -0.405235 5.067435 -0.101399
v -1.293119 4.509807 0.688348
v -2.175816 4.348517 -0.100965
v -1.840633 4.952127 -1.103224
v -0.891948 5.487587 -0.884554
v -1.063606 5.326316 0.725444
v -1.891223 5.097390 0.573498
v -2.462006 5.285576 -0.427637
v -1.438179 5.779136 -0.858107
v -0.808801 5.690998 -0.067433
v -1.667764 5.803588 0.145341
vt 0.1038 0.7824
vt 0.1052 0.7818
vt 0.1052 0.8031
vt 0.1046 0.8033
vt 0.0708 0.8227
vt 0.0707 0.8210
vt 0.0711 0.8198
vt 0.0717 0.8199
vt 0.0721 0.8210
vt 0.0721 0.8225
vt 0.0717 0.8237
vt 0.0712 0.8238
vt 0.0670 0.9027
vt 0.0657 0.9027
vt 0.0663 0.8855
vt 0.0666 0.8860
vt 0.0767 0.7944
vt 0.0779 0.7961
vt 0.0767 0.7977
vt 0.0756 0.7959
vt 0.0750 0.7944
vt 0.0756 0.7936
vt 0.0354 0.8827
vt 0.0370 0.8814
vt 0.0382 0.8827
vt 0.0368 0.8842
vt 0.0465 0.9024
vt 0.0468 0.9027
vt 0.0464 0.9035
vt 0.0460 0.9030
vt 0.0696 0.8155
vt 0.0692 0.8148
vt 0.0786 0.9028
vt 0.0772 0.9025
vt 0.0784 0.8838
vt 0.0786 0.8832
vt 0.0750 0.8182
vt 0.0757 0.8183
vt 0.0757 0.8198
vt 0.0750 0.8197
vt 0.0868 0.8140
vt 0.0861 0.8149
vt 0.0262 0.9012
vt 0.0253 0.9003
vt 0.1052 0.8672
vt 0.1039 0.8665
vt 0.1045 0.8457
vt 0.1052 0.8458
vt 0.0737 0.8163
vt 0.0744 0.8155
vt 0.0744 0.8226
vt 0.0737 0.8233
vt 0.1011 0.8036
vt 0.1023 0.8032
vt 0.1015 0.8058
vt 0.1008 0.8059
vt 0.1018 0.8118
vt 0.1024 0.8117
vt 0.1024 0.8128
vt 0.1019 0.8129
vt 0.0744 0.8158
vt 0.0750 0.8155
vt 0.0750 0.8212
vt 0.0745 0.8213
vt 0.0707 0.7924
vt 0.0712 0.7917
vt 0.1001 0.8037
vt 0.0999 0.8058
vt 0.0948 0.8054
vt 0.0949 0.8042
vt 0.1009 0.8070
vt 0.0999 0.8069
vt 0.0757 0.8201
vt 0.0757 0.8212
vt 0.0750 0.8204
vt 0.0750 0.8198
vt 0.0948 0.8060
vt 0.0950 0.8163
vt 0.0961 0.8156
vt 0.0963 0.8218
vt 0.0957 0.8222
vt 0.0707 0.8225
vt 0.0693 0.8225
vt 0.0695 0.8155
vt 0.0703 0.8155
vt 0.0642 0.9105
vt 0.0649 0.9095
vt 0.0657 0.8576
vt 0.0661 0.8589
vt 0.2595 0.4103
vt 0.2554 0.4288
vt 0.2501 0.4064
vt 0.2688 0.4216
vt 0.2544 0.3875
vt 0.2688 0.3953
vt 0.2321 0.4058
vt 0.2287 0.3916
vt 0.2372 0.3895
vt 0.2282 0.4313
vt 0.2396 0.4129
vt 0.2831 0.3042
vt 0.2864 0.3161
vt 0.2707 0.3161
vt 0.2798 0.2802
vt 0.2720 0.2888
vt 0.2711 0.3794
vt 0.2710 0.3530
vt 0.2767 0.3700
vt 0.2449 0.4313
vt 0.2786 0.3447
vt 0.2786 0.3875
vt 0.2282 0.3588
vt 0.2405 0.3481
vt 0.2385 0.3683
vt 0.2299 0.3895
vt 0.2448 0.3895
vt 0.2501 0.3622
vt 0.2839 0.3901
vt 0.2839 0.4191
vt 0.2688 0.3875
vt 0.2352 0.3481
vt 0.2282 0.3164
vt 0.2489 0.3307
vt 0.2151 0.3839
vt 0.2006 0.3997
vt 0.2077 0.3666
vt 0.2318 0.2802
vt 0.2489 0.2886
vt 0.2475 0.3453
vt 0.2695 0.4088
vt 0.1970 0.3780
vt 0.2151 0.3395
vt 0.2025 0.3408
vt 0.2176 0.3919
vt 0.2151 0.3505
vt 0.2232 0.3728
vt 0.2834 0.4381
vt 0.2282 0.3356
vt 0.2175 0.3395
vt 0.2240 0.3117
vt 0.2265 0.3395
vt 0.2265 0.4040
vt 0.1970 0.3395
vt 0.2099 0.3127
vt 0.2112 0.2802
vt 0.1988 0.3052
vt 0.2589 0.2979
vt 0.2541 0.2802
vt 0.2707 0.2839
vt 0.2489 0.3018
vt 0.2707 0.3115
vt 0.2562 0.3213
vt 0.2710 0.3558
vt 0.2710 0.3794
vt 0.2673 0.3629
vt 0.2060 0.4018
vt 0.2060 0.4330
vt 0.1970 0.4132
vt 0.2134 0.4273
vt 0.2082 0.4105
vt 0.2162 0.4045
vt 0.2265 0.4398
vt 0.2262 0.4213
vt 0.2805 0.3789
vt 0.2786 0.3527
vt 0.2868 0.3696
vt 0.1974 0.4323
vt 0.1980 0.3997
vt 0.2868 0.3447
vt 0.2651 0.3866
vt 0.2589 0.3481
vt 0.2564 0.3692
vt 0.2501 0.3597
vt 0.2265 0.4040
vt 0.2501 0.3875
vt 0.0845 0.9413
vt 0.0834 0.9211
vt 0.0858 0.9212
vt 0.0881 0.9415
vt 0.0876 0.9210
vt 0.0907 0.9412
vt 0.0929 0.9209
vt 0.0952 0.9209
vt 0.0942 0.9412
vt 0.0973 0.9208
vt 0.0974 0.9409
vt 0.0468 0.7846
vt 0.0396 0.8023
vt 0.0376 0.8015
vt 0.0439 0.7834
vt 0.0354 0.8005
vt 0.0406 0.7818
vt 0.0342 0.8255
vt 0.0328 0.8249
vt 0.0974 0.9409
vt 0.0974 0.9209
vt 0.0998 0.9210
vt 0.1009 0.9410
vt 0.1018 0.9212
vt 0.1039 0.9413
vt 0.0657 0.8821
vt 0.0657 0.8772
vt 0.0682 0.8737
vt 0.0718 0.8737
vt 0.0744 0.8772
vt 0.0744 0.8821
vt 0.0718 0.8855
vt 0.0682 0.8855
vt 0.0892 0.8968
vt 0.0879 0.8969
vt 0.0863 0.8797
vt 0.0875 0.8796
vt 0.1014 0.8967
vt 0.1028 0.8968
vt 0.0863 0.8969
vt 0.0918 0.8966
vt 0.0934 0.8966
vt 0.0313 0.8241
vt 0.0949 0.8965
vt 0.0997 0.8966
vt 0.1039 0.8523
vt 0.1027 0.8523
vt 0.1023 0.8504
vt 0.1036 0.8502
vt 0.0990 0.8794
vt 0.1006 0.8795
vt 0.0288 0.8411
vt 0.0275 0.8406
vt 0.0930 0.8794
vt 0.0945 0.8794
vt 0.0846 0.8797
vt 0.1019 0.8796
vt 0.0260 0.8399
vt 0.0959 0.8792
vt 0.0920 0.8494
vt 0.0908 0.8494
vt 0.0938 0.8240
vt 0.0944 0.8241
vt 0.0213 0.8664
vt 0.0225 0.8671
vt 0.0223 0.8696
vt 0.0215 0.8687
vt 0.0904 0.8525
vt 0.0894 0.8526
vt 0.0898 0.8502
vt 0.0907 0.8498
vt 0.1014 0.8522
vt 0.1011 0.8501
vt 0.0236 0.8676
vt 0.0232 0.8702
vt 0.0922 0.8521
vt 0.0909 0.8521
vt 0.0881 0.8527
vt 0.0886 0.8505
vt 0.0888 0.8241
vt 0.0900 0.8240
vt 0.0877 0.8506
vt 0.0879 0.8241
vt 0.0163 0.8938
vt 0.0154 0.8934
vt 0.0932 0.8493
vt 0.0948 0.8241
vt 0.0907 0.8240
vt 0.1004 0.8240
vt 0.1010 0.8240
vt 0.0173 0.8943
vt 0.0934 0.8520
vt 0.1010 0.7818
vt 0.1024 0.7819
vt 0.0865 0.7818
vt 0.0868 0.7846
vt 0.1024 0.8028
vt 0.1038 0.8028
vt 0.1038 0.8232
vt 0.1024 0.8226
vt 0.0963 0.8129
vt 0.0960 0.8144
vt 0.0948 0.8151
vt 0.0949 0.8144
vt 0.0707 0.8239
vt 0.0692 0.8239
vt 0.0683 0.9026
vt 0.0670 0.9024
vt 0.0677 0.8855
vt 0.0683 0.8856
vt 0.0550 0.8000
vt 0.0570 0.8011
vt 0.0557 0.8030
vt 0.0538 0.8020
vt 0.0522 0.8011
vt 0.0528 0.8001
vt 0.0617 0.8471
vt 0.0635 0.8470
vt 0.0642 0.8489
vt 0.0624 0.8493
vt 0.0482 0.8238
vt 0.0468 0.8240
vt 0.0657 0.8729
vt 0.0645 0.8721
vt 0.0696 0.9017
vt 0.0683 0.9011
vt 0.0691 0.8855
vt 0.0696 0.8857
vt 0.0550 0.8285
vt 0.0566 0.8265
vt 0.0830 0.8959
vt 0.0816 0.8959
vt 0.0815 0.8766
vt 0.0828 0.8761
vt 0.0659 0.7835
vt 0.0669 0.7860
vt 0.1052 0.8421
vt 0.1039 0.8421
vt 0.1039 0.8240
vt 0.1052 0.8248
vt 0.0692 0.8152
vt 0.0684 0.8164
vt 0.0473 0.8569
vt 0.0468 0.8555
vt 0.0800 0.9026
vt 0.0786 0.9024
vt 0.0793 0.8832
vt 0.0800 0.8832
vt 0.0744 0.8213
vt 0.0756 0.8217
vt 0.0756 0.8233
vt 0.0750 0.8232
vt 0.0823 0.8737
vt 0.0830 0.8737
vt 0.0653 0.8477
vt 0.0657 0.8489
vt 0.1052 0.8457
vt 0.1039 0.8456
vt 0.0721 0.8199
vt 0.0734 0.8198
vt 0.0734 0.8227
vt 0.0721 0.8227
vt 0.0829 0.8995
vt 0.0815 0.8994
vt 0.0682 0.7818
vt 0.0692 0.7843
vt 0.0532 0.8260
vt 0.0547 0.8240
vt 0.0696 0.8858
vt 0.0707 0.8855
vt 0.0707 0.9027
vt 0.0702 0.9028
vt 0.0526 0.8925
vt 0.0544 0.8935
vt 0.0533 0.8956
vt 0.0515 0.8944
vt 0.0812 0.8495
vt 0.0827 0.8490
vt 0.0834 0.8511
vt 0.0817 0.8516
vt 0.0475 0.9153
vt 0.0468 0.9148
vt 0.0834 0.8736
vt 0.0827 0.8737
vt 0.0814 0.9000
vt 0.0800 0.8995
vt 0.0810 0.8832
vt 0.0814 0.8833
vt 0.0748 0.8282
vt 0.0766 0.8257
vt 0.0934 0.7849
vt 0.0948 0.7849
vt 0.0930 0.8081
vt 0.0918 0.8088
vt 0.0636 0.8729
vt 0.0649 0.8759
vt 0.0744 0.8769
vt 0.0757 0.8769
vt 0.0772 0.8986
vt 0.0758 0.8978
vt 0.1038 0.8028
vt 0.1024 0.8025
vt 0.1031 0.7819
vt 0.1038 0.7818
vt 0.0759 0.8737
vt 0.0772 0.8737
vt 0.0710 0.8198
vt 0.0707 0.8181
vt 0.0731 0.8180
vt 0.0734 0.8198
vt 0.0918 0.7818
vt 0.0932 0.7818
vt 0.0711 0.8157
vt 0.0737 0.8155
vt 0.0726 0.8263
vt 0.0742 0.8240
vn -0.1561 -0.3229 -0.9335
vn -0.1114 0.9935 0.0245
vn 0.1098 -0.7600 0.6406
vn 0.9955 -0.0896 0.0306
vn 0.8963 -0.4223 0.1350
vn -0.9983 0.0563 -0.0180
vn -0.8258 0.1334 0.5480
vn 0.9995 0.0020 0.0313
vn -0.9993 0.0268 0.0250
vn -0.2566 0.7830 -0.5666
vn -0.1475 0.9367 -0.3175
vn 0.9875 0.1515 -0.0431
vn -0.9935 -0.1106 0.0287
vn 0.0473 0.3567 0.9330
vn -0.9618 -0.2566 0.0949
vn -0.0280 -0.8678 -0.4962
vn 0.1464 -0.9387 0.3122
vn -0.0671 0.8170 0.5727
vn 0.0063 -0.8350 -0.5502
vn 0.9705 0.2249 -0.0867
vn -0.1329 -0.8552 -0.5009
vn -0.1856 -0.9332 0.3077
vn -0.9912 0.1290 -0.0311
vn -0.1857 -0.9332 0.3077
vn 0.0124 0.6384 0.7696
vn 0.0786 0.9471 -0.3111
vn 0.2917 0.9524 -0.0883
vn 0.5431 -0.7577 0.3619
vn 0.7434 -0.6243 0.2401
vn 0.1361 -0.9029 -0.4078
vn 0.2095 -0.7841 -0.5842
vn 0.6601 -0.5849 -0.4713
vn 0.8842 -0.1395 0.4457
vn -0.0188 -0.5283 0.8488
vn -0.8026 -0.5654 0.1901
vn -0.3141 -0.2303 -0.9210
vn 0.7495 -0.0927 -0.6555
vn 0.3740 0.2278 0.8990
vn -0.5924 -0.3415 0.7297
vn -0.8345 -0.0047 -0.5510
vn 0.1554 0.5323 -0.8322
vn 0.8552 0.5055 -0.1143
vn -0.1485 0.8115 0.5652
vn -0.4221 0.7485 0.5115
vn -0.4730 0.8744 -0.1078
vn -0.0263 0.9465 -0.3218
vn 0.1424 0.9799 -0.1398
vn -0.1112 -0.7129 0.6924
vn 0.3618 -0.9218 0.1393
vn -0.7004 -0.6905 0.1807
vn -0.2056 -0.9313 -0.3006
vn 0.2553 -0.9449 -0.2048
vn 0.8095 -0.5244 0.2642
vn 0.0099 0.0784 0.9969
vn -0.9863 0.1081 0.1248
vn -0.4341 -0.2435 -0.8673
vn 0.7501 -0.2158 -0.6251
vn 0.3459 0.5299 0.7743
vn -0.4295 0.7965 0.4255
vn -0.7847 0.5690 -0.2459
vn 0.4702 0.3628 -0.8045
vn 0.8993 0.1900 -0.3940
vn 0.1993 0.9467 0.2532
vn -0.1783 0.9624 0.2050
vn -0.2532 0.9656 -0.0599
vn 0.3360 0.9024 -0.2696
vn 0.3949 0.8972 -0.1977
vn 0.5165 -0.8560 -0.0238
vn 0.5653 -0.5274 -0.6343
vn 0.2347 -0.9699 -0.0643
vn 0.0742 -0.8651 -0.4962
vn 0.4643 -0.5340 -0.7066
vn 0.8141 0.5387 -0.2169
vn 0.7239 -0.2330 0.6494
vn -0.5575 -0.4285 0.7110
vn -0.7634 -0.4078 -0.5009
vn 0.0842 0.2453 -0.9658
vn 0.7576 0.4654 0.4576
vn -0.1823 0.0066 0.9832
vn -0.8723 -0.0996 0.4786
vn -0.5244 0.4663 -0.7124
vn 0.4451 0.8573 -0.2587
vn 0.2276 0.8548 0.4663
vn -0.2972 0.5620 0.7719
vn -0.6962 0.5202 0.4947
vn -0.4743 0.8707 -0.1297
vn 0.1314 0.9913 0.0059
vn 0.7231 0.1588 -0.6723
vn 0.9696 0.2420 0.0353
vn 0.6607 0.2420 0.7106
vn -0.0359 0.1588 0.9867
vn -0.7319 0.0357 0.6805
vn -0.9979 -0.0527 -0.0364
vn -0.7292 0.0929 0.6779
vn -0.6799 -0.0527 -0.7314
vn 0.0364 0.0357 -0.9987
vn 0.0000 -1.0000 0.0000
vn 0.9850 0.1686 0.0359
vn 0.0362 0.0929 -0.9950
vn 0.7324 0.0036 -0.6809
vn 0.6797 -0.0597 0.7311
vn -0.9873 0.1549 -0.0360
vn -0.0364 0.0036 0.9993
vn -0.6727 0.1549 -0.7235
vn 0.9976 -0.0597 0.0363
vn -0.0856 0.4220 -0.9025
vn -0.6725 -0.1563 -0.7234
vn -0.7310 -0.0617 0.6796
vn 0.6711 0.1686 0.7219
vn 0.7304 0.0744 -0.6790
vn 0.0363 -0.0617 -0.9974
vn -0.9871 -0.1563 -0.0360
vn -0.0363 0.0744 0.9966
vn 0.5737 0.0202 0.8188
vn -0.9981 0.0148 0.0604
vn 0.9958 -0.0908 0.0130
vn -0.5936 0.3422 -0.7284
vn -0.6591 -0.0615 0.7496
vn 0.6667 -0.1357 0.7329
vn 0.5758 0.2178 -0.7881
vn 0.7126 0.1677 -0.6812
vn 0.1792 0.0840 -0.9802
vn -0.9919 -0.0729 0.1039
vn -0.2534 -0.0726 0.9646
vn 0.9856 0.1613 -0.0510
vn -0.6082 -0.0205 -0.7935
vn -0.7306 -0.0795 0.6782
vn 0.7139 -0.0342 -0.6994
vn 0.6762 -0.1172 0.7273
vn -0.7296 0.0702 0.6803
vn -0.6650 0.1495 -0.7317
vn 0.9925 -0.1172 0.0359
vn -0.0364 -0.0398 0.9985
vn -0.9890 0.1457 -0.0246
vn 0.0130 0.0797 -0.9967
vn -0.9949 0.0922 -0.0398
vn 0.0927 -0.9482 0.3038
vn 0.9932 -0.1057 0.0497
vn -0.1898 0.9345 -0.3013
vn -0.0866 0.6441 0.7600
vn 0.5374 -0.6146 -0.5775
vn -0.5302 -0.1244 -0.8387
vn -0.3106 -0.4233 -0.8511
vn 0.5495 0.1063 0.8287
vn -0.5532 -0.0369 -0.8323
vn 0.5776 0.0705 0.8133
vn -0.4556 0.6386 0.6202
vn 0.5135 0.1403 0.8466
vn 0.4121 -0.8422 -0.3477
vn -0.5053 -0.1452 -0.8506
vn -0.3626 0.8402 0.4031
vn -0.6376 0.1321 -0.7590
vn 0.6319 -0.0920 0.7696
vn 0.5786 0.6216 -0.5280
vn 0.4858 0.8224 -0.2961
vn -0.1598 -0.9634 0.2151
vn 0.5176 0.1727 0.8380
vn -0.2106 0.9740 0.0835
vn -0.8085 -0.2216 0.5451
vn 0.2106 -0.9740 -0.0835
vn -0.5186 -0.1696 -0.8381
vn 0.5150 0.1816 0.8377
vn -0.6130 -0.7413 0.2733
vn -0.1778 -0.3675 0.9129
vn 0.1023 0.3258 -0.9399
vn -0.1050 -0.2276 0.9681
vn 0.0036 0.1756 -0.9845
vn 0.5672 0.7706 -0.2907
vn 0.1995 0.2698 -0.9420
vn -0.3992 -0.9119 0.0954
vn -0.2108 -0.2667 0.9404
vn 0.3662 0.9159 -0.1646
vn -0.0396 0.0375 0.9985
vn 0.0542 0.0046 -0.9985
vn -0.9678 0.1770 0.1788
vn 0.9510 -0.1378 -0.2766
vn 0.9601 0.2768 0.0395
vn 0.9991 0.0268 0.0340
vn -0.9217 -0.3874 -0.0210
vn -0.9332 -0.0924 0.3472
vn 0.9488 0.0872 -0.3036
usemtl Material.008
s off
f 66/1/1 65/2/1 71/3/1 72/4/1
f 41/5/2 42/6/2 48/7/2 47/8/2 46/9/2 45/10/2 44/11/2 43/12/2
f 60/13/3 59/14/3 63/15/3 64/16/3
f 67/17/4 66/18/4 58/19/4 59/20/4
f 67/17/5 59/20/5 73/21/5 75/22/5
f 65/23/6 68/24/6 60/25/6 57/26/6
f 64/27/7 63/28/7 62/29/7 61/30/7
f 59/20/8 58/19/8 62/31/8 63/32/8
f 57/26/9 60/25/9 64/27/9 61/30/9
f 58/33/10 57/34/10 61/35/10 62/36/10
f 72/37/11 71/38/11 69/39/11 70/40/11
f 58/19/12 66/18/12 72/41/12 70/42/12
f 65/23/13 57/26/13 69/43/13 71/44/13
f 57/45/14 58/46/14 70/47/14 69/48/14
f 74/49/15 76/50/15 80/51/15 78/52/15
f 68/53/16 67/54/16 75/55/16 76/56/16
f 80/57/17 79/58/17 77/59/17 78/60/17
f 73/61/18 74/62/18 78/63/18 77/64/18
f 76/56/19 75/55/19 79/58/19 80/57/19
f 75/22/20 73/21/20 77/65/20 79/66/20
f 82/67/21 84/68/21 88/69/21 86/70/21
f 76/56/22 74/71/22 83/72/22 84/68/22
f 68/53/21 76/56/21 84/68/21 82/67/21
f 85/73/23 86/74/23 88/75/23 87/76/23
f 84/68/24 83/72/24 87/77/24 88/69/24
f 83/78/25 81/79/25 85/80/25 87/81/25
f 81/82/26 82/83/26 86/84/26 85/85/26
f 134/86/27 136/87/27 135/88/27 133/89/27
f 141/90/28 142/91/28 143/92/28
f 142/91/29 141/90/29 146/93/29
f 141/90/30 143/92/30 144/94/30
f 141/90/31 144/94/31 145/95/31
f 141/90/32 145/95/32 146/93/32
f 142/96/33 146/97/33 151/98/33
f 143/99/34 142/96/34 147/100/34
f 144/101/35 143/102/35 148/103/35
f 145/104/36 144/101/36 149/105/36
f 146/106/37 145/107/37 150/108/37
f 142/96/38 151/98/38 147/100/38
f 143/99/39 147/100/39 148/109/39
f 144/101/40 148/103/40 149/105/40
f 145/107/41 149/110/41 150/108/41
f 146/106/42 150/108/42 151/111/42
f 147/112/43 151/113/43 152/114/43
f 148/115/44 147/112/44 152/114/44
f 149/116/45 148/115/45 152/114/45
f 150/117/46 149/116/46 152/114/46
f 151/113/47 150/117/47 152/114/47
f 153/118/48 154/119/48 155/120/48
f 154/121/49 153/122/49 158/123/49
f 153/124/50 155/125/50 156/126/50
f 153/122/51 156/127/51 157/128/51
f 153/122/52 157/128/52 158/123/52
f 154/121/53 158/123/53 163/129/53
f 155/120/54 154/119/54 159/130/54
f 156/126/55 155/125/55 160/131/55
f 157/132/56 156/126/56 161/133/56
f 158/134/57 157/135/57 162/136/57
f 154/119/58 163/137/58 159/130/58
f 155/138/59 159/139/59 160/140/59
f 156/126/60 160/131/60 161/133/60
f 157/135/61 161/141/61 162/136/61
f 158/134/62 162/136/62 163/142/62
f 159/139/63 163/143/63 164/144/63
f 160/140/64 159/139/64 164/144/64
f 161/145/65 160/140/65 164/144/65
f 162/146/66 161/145/66 164/144/66
f 163/143/67 162/146/67 164/144/67
f 165/147/68 166/148/68 167/149/68
f 166/148/69 165/147/69 170/150/69
f 165/147/70 167/149/70 168/151/70
f 165/147/71 168/151/71 169/152/71
f 165/147/72 169/152/72 170/150/72
f 166/153/73 170/154/73 175/155/73
f 167/156/74 166/157/74 171/158/74
f 168/159/75 167/160/75 172/161/75
f 169/162/76 168/159/76 173/163/76
f 170/164/77 169/165/77 174/166/77
f 166/157/78 175/167/78 171/158/78
f 167/156/79 171/158/79 172/168/79
f 168/159/80 172/161/80 173/163/80
f 169/165/81 173/169/81 174/166/81
f 170/154/82 174/170/82 175/155/82
f 171/171/83 175/155/83 176/172/83
f 172/173/84 171/171/84 176/172/84
f 173/163/85 172/161/85 176/174/85
f 174/170/86 173/175/86 176/172/86
f 175/155/87 174/170/87 176/172/87
usemtl bark
f 1/176/88 2/177/88 4/178/88 3/179/88
f 3/179/89 4/178/89 6/180/89 5/181/89
f 5/181/90 6/182/90 8/183/90 7/184/90
f 7/184/91 8/183/91 10/185/91 9/186/91
f 9/187/92 10/188/92 12/189/92 11/190/92
f 11/190/93 12/189/93 14/191/93 13/192/93
f 12/189/94 10/188/94 21/193/94 22/194/94
f 13/195/95 14/196/95 16/197/95 15/198/95
f 15/198/96 16/197/96 2/199/96 1/200/96
f 1/201/97 3/202/97 5/203/97 7/204/97 9/205/97 11/206/97 13/207/97 15/208/97
f 19/209/98 17/210/98 25/211/98 27/212/98
f 2/199/99 16/197/99 24/213/99 18/214/99
f 4/178/100 2/177/100 18/215/100 17/210/100
f 8/183/101 6/182/101 19/216/101 20/217/101
f 14/191/102 12/189/102 22/194/102 23/218/102
f 10/185/103 8/183/103 20/217/103 21/219/103
f 16/197/104 14/196/104 23/220/104 24/213/104
f 6/180/105 4/178/105 17/210/105 19/209/105
f 50/221/106 49/222/106 40/223/106 34/224/106
f 24/213/107 23/220/107 31/225/107 32/226/107
f 22/194/108 21/193/108 29/227/108 30/228/108
f 20/217/109 19/216/109 27/229/109 28/230/109
f 17/210/110 18/215/110 26/231/110 25/211/110
f 18/214/111 24/213/111 32/226/111 26/232/111
f 23/218/112 22/194/112 30/228/112 31/233/112
f 21/219/113 20/217/113 28/230/113 29/234/113
f 36/235/114 35/236/114 43/237/114 44/238/114
f 52/239/115 51/240/115 38/241/115 39/242/115
f 56/243/116 55/244/116 33/245/116 35/246/116
f 49/222/117 52/247/117 39/248/117 40/223/117
f 51/240/118 54/249/118 37/250/118 38/241/118
f 53/251/119 56/252/119 35/236/119 36/235/119
f 55/244/120 50/253/120 34/254/120 33/245/120
f 33/245/121 34/254/121 42/255/121 41/256/121
f 34/254/122 40/257/122 48/258/122 42/255/122
f 39/242/123 38/241/123 46/259/123 47/260/123
f 37/261/124 36/235/124 44/238/124 45/262/124
f 35/246/125 33/245/125 41/256/125 43/263/125
f 40/223/126 39/248/126 47/264/126 48/265/126
f 38/241/127 37/250/127 45/266/127 46/259/127
f 25/211/128 26/231/128 50/253/128 55/244/128
f 28/230/129 27/229/129 56/252/129 53/251/129
f 30/228/130 29/227/130 54/249/130 51/240/130
f 32/226/131 31/225/131 52/247/131 49/222/131
f 27/212/132 25/211/132 55/244/132 56/243/132
f 29/234/133 28/230/133 53/251/133 54/267/133
f 31/233/134 30/228/134 51/240/134 52/239/134
f 26/232/135 32/226/135 49/222/135 50/221/135
f 37/250/136 54/249/136 68/24/136 65/23/136
f 54/268/137 53/269/137 67/54/137 68/53/137
f 53/270/138 36/271/138 66/18/138 67/17/138
f 36/272/139 37/273/139 65/274/139 66/275/139
f 59/276/140 60/277/140 74/278/140 73/279/140
f 74/278/25 60/277/25 81/79/25 83/78/25
f 60/280/26 68/281/26 82/83/26 81/82/26
f 96/282/141 95/283/141 99/284/141 100/285/141
f 103/286/142 102/287/142 94/288/142 95/289/142
f 103/286/143 95/289/143 109/290/143 111/291/143
f 101/292/144 104/293/144 96/294/144 93/295/144
f 95/289/145 94/288/145 98/296/145 99/297/145
f 93/295/146 96/294/146 100/298/146 97/299/146
f 94/300/147 93/301/147 97/302/147 98/303/147
f 90/304/148 92/305/148 104/293/148 101/292/148
f 92/306/149 91/307/149 103/308/149 104/309/149
f 91/310/150 89/311/150 102/287/150 103/286/150
f 89/312/151 90/313/151 101/314/151 102/315/151
f 94/288/152 102/287/152 108/316/152 106/317/152
f 101/292/153 93/295/153 105/318/153 107/319/153
f 93/320/154 94/321/154 106/322/154 105/323/154
f 95/324/155 96/325/155 110/326/155 109/327/155
f 104/309/156 103/308/156 111/328/156 112/329/156
f 104/293/157 112/330/157 110/331/157 96/294/157
f 90/313/158 89/312/158 114/332/158 113/333/158
f 113/334/159 114/335/159 115/336/159 116/337/159
f 91/307/160 92/306/160 116/338/160 115/339/160
f 89/311/161 91/310/161 115/340/161 114/341/161
f 92/305/162 90/304/162 113/342/162 116/343/162
f 124/344/163 123/345/163 127/346/163 128/347/163
f 131/348/164 130/349/164 122/350/164 123/351/164
f 129/352/165 132/353/165 124/354/165 121/355/165
f 123/351/166 122/350/166 126/356/166 127/357/166
f 121/355/167 124/354/167 128/358/167 125/359/167
f 122/360/168 121/361/168 125/362/168 126/363/168
f 118/364/169 120/365/169 132/353/169 129/352/169
f 120/366/170 119/367/170 131/368/170 132/369/170
f 119/370/171 117/371/171 130/349/171 131/348/171
f 117/372/172 118/373/172 129/374/172 130/375/172
f 122/350/173 130/349/173 136/87/173 134/86/173
f 129/352/174 121/355/174 133/89/174 135/88/174
f 121/376/175 122/377/175 134/378/175 133/379/175
f 130/349/176 129/352/176 135/88/176 136/87/176
f 118/373/177 117/372/177 138/380/177 137/381/177
f 137/382/178 138/383/178 139/384/178 140/385/178
f 119/367/179 120/366/179 140/386/179 139/387/179
f 117/388/180 119/389/180 139/384/180 138/383/180
f 120/365/181 118/364/181 137/390/181 140/391/181
