# Blender v2.78 (sub 0) OBJ File: 'low+poly+forest+assets+1+.blend'
# www.blender.org
mtllib tree3.mtl
o pine_tree_1_var_1_Cylinder.004
v 0.416481 0.344736 -0.040310
v 0.450297 6.945924 0.519456
v 0.506455 0.373913 0.236209
v 0.469114 6.946644 0.573835
v 0.352872 0.376395 0.479705
v 0.444443 6.948477 0.623918
v 0.059836 0.355207 0.575812
v 0.390625 6.950470 0.640378
v -0.161019 0.350258 0.486429
v 0.340102 6.951346 0.613408
v -0.228378 0.347789 0.214155
v 0.322450 6.950470 0.558815
v -0.125740 0.333520 -0.088411
v 0.347156 6.948477 0.508720
v 0.145506 0.330144 -0.185888
v 0.399795 6.946644 0.492478
v 1.225972 1.491278 -0.647527
v 0.823744 2.738587 -0.708379
v 0.558031 4.220214 -0.388479
v 0.599181 5.699428 0.282429
v 0.765034 5.704573 0.656367
v 1.022263 4.296505 0.261792
v 1.359520 2.873462 0.248202
v 1.526805 1.632402 0.353629
v 0.655755 5.722108 1.005458
v 0.766831 4.337254 0.891382
v 1.029119 2.853995 0.906596
v 1.027084 1.546634 1.118021
v 0.312092 5.743257 1.118761
v -0.090265 4.361524 1.171077
v -0.282132 2.655726 1.113034
v -0.289084 1.367106 1.429492
v -0.043506 5.755619 0.933868
v -0.586045 4.417813 0.980095
v -0.886145 2.755205 0.931303
v -1.023538 1.474271 1.135217
v -0.200336 5.743901 0.554944
v -0.725026 4.400560 0.381185
v -0.891635 2.854217 0.146095
v -1.109969 1.566617 0.200288
v -0.083619 5.722262 0.204552
v -0.386919 4.330498 -0.389207
v -0.497387 2.813292 -0.873799
v -0.784472 1.524542 -1.016753
v 0.248367 5.707027 0.099003
v 0.088844 4.272439 -0.663018
v 0.156895 2.774444 -1.121366
v 0.215865 1.507565 -1.234558
v 0.575959 5.896181 0.498166
v 0.636463 5.803548 0.655445
v 0.534777 5.802335 0.756727
v 0.422523 5.907718 0.850236
v 0.275861 5.910522 0.772600
v 0.219841 5.907732 0.614727
v 0.283568 5.902377 0.469991
v 0.429865 5.898052 0.422239
v 0.357285 4.729872 0.058504
v 0.517236 4.739801 0.390005
v 0.383394 4.778583 0.772188
v 0.050954 4.808468 0.936071
v -0.248133 4.824665 0.800487
v -0.360614 4.815720 0.466988
v -0.213373 4.785809 0.097607
v 0.070193 4.753834 -0.065231
v 0.403781 3.263510 -0.515000
v 0.747792 3.363637 0.007282
v 0.547350 3.363223 0.436596
v -0.184521 3.342152 0.724762
v -0.577076 3.406913 0.692076
v -0.576818 3.437024 0.171415
v -0.355946 3.368857 -0.519742
v 0.027429 3.299978 -0.738753
v 1.115334 1.899841 0.272918
v 0.808426 1.839414 0.721454
v -0.259058 1.637538 0.939900
v -0.742986 1.709422 0.774931
v -0.666340 1.824573 0.182799
v -0.389274 1.792088 -0.699435
v 0.146028 1.758813 -0.859183
v 0.789229 1.750529 -0.437182
v 1.283990 0.319189 -0.628453
v 1.597579 0.390342 0.371913
v 1.055012 0.399012 1.267774
v -0.169899 0.272825 1.517953
v -0.944307 0.338459 1.192650
v -1.131037 0.371982 0.235907
v -0.768055 0.328631 -0.919472
v 0.288012 0.324450 -1.190133
v 0.434433 -0.204636 -0.001734
v 0.525604 -0.174669 0.281007
v 0.382194 -0.165576 0.530824
v 0.098894 -0.182570 0.617877
v -0.132842 -0.195036 0.511805
v -0.215549 -0.207755 0.231753
v -0.105121 -0.221686 -0.059796
v 0.167710 -0.221547 -0.150977
v 0.771347 5.276653 0.517815
v 0.615908 5.290111 0.803805
v 0.243241 5.367135 0.962409
v -0.025480 5.388638 0.845145
v -0.110505 5.380792 0.533075
v 0.049152 5.352814 0.169597
v 0.310637 5.329702 0.042810
v 0.569691 5.310226 0.188176
vt 0.6563 0.6563
vt 0.6613 0.6504
vt 0.6618 0.6511
vt 0.6594 0.6611
vt 0.6622 0.6513
vt 0.6622 0.6633
vt 0.7064 0.5907
vt 0.7064 0.6029
vt 0.7059 0.6031
vt 0.7028 0.5917
vt 0.7055 0.6036
vt 0.6999 0.5956
vt 0.6922 0.5734
vt 0.6943 0.5648
vt 0.6949 0.5648
vt 0.6964 0.5734
vt 0.7056 0.5761
vt 0.7054 0.5885
vt 0.7049 0.5886
vt 0.7025 0.5760
vt 0.7047 0.5907
vt 0.7044 0.5902
vt 0.7045 0.5893
vt 0.7056 0.5890
vt 0.7056 0.5899
vt 0.7052 0.5906
vt 0.6999 0.5804
vt 0.6546 0.6515
vt 0.6611 0.6497
vt 0.6755 0.5582
vt 0.6784 0.5610
vt 0.6710 0.5765
vt 0.6703 0.5679
vt 0.6708 0.6119
vt 0.6704 0.6178
vt 0.6628 0.6162
vt 0.6665 0.6111
vt 0.6862 0.6338
vt 0.6879 0.6422
vt 0.6825 0.6418
vt 0.6831 0.6343
vt 0.6802 0.5649
vt 0.6784 0.5697
vt 0.6785 0.5628
vt 0.6802 0.5621
vt 0.6751 0.5481
vt 0.6784 0.5425
vt 0.6736 0.6057
vt 0.6756 0.6091
vt 0.6881 0.6291
vt 0.6911 0.6342
vt 0.6813 0.5670
vt 0.6809 0.5744
vt 0.6676 0.5397
vt 0.6679 0.5318
vt 0.6732 0.5934
vt 0.6756 0.5902
vt 0.6880 0.6222
vt 0.6911 0.6197
vt 0.6828 0.5670
vt 0.6844 0.5738
vt 0.6621 0.5360
vt 0.6589 0.5296
vt 0.6713 0.5851
vt 0.6726 0.5777
vt 0.6856 0.6180
vt 0.6875 0.6117
vt 0.6839 0.5650
vt 0.6870 0.5687
vt 0.6595 0.5438
vt 0.6546 0.5414
vt 0.6675 0.5874
vt 0.6663 0.5792
vt 0.6824 0.6184
vt 0.6822 0.6127
vt 0.6840 0.5621
vt 0.6870 0.5617
vt 0.6597 0.5635
vt 0.6551 0.5658
vt 0.6619 0.5975
vt 0.6552 0.5926
vt 0.6800 0.6236
vt 0.6756 0.6241
vt 0.6827 0.5607
vt 0.6844 0.5569
vt 0.6633 0.5707
vt 0.6613 0.5777
vt 0.6616 0.6057
vt 0.6546 0.6055
vt 0.6803 0.6305
vt 0.6758 0.6358
vt 0.6814 0.5598
vt 0.6809 0.5575
vt 0.6772 0.6526
vt 0.6756 0.6460
vt 0.6765 0.6434
vt 0.6788 0.6463
vt 0.6451 0.6518
vt 0.6439 0.6493
vt 0.6443 0.6471
vt 0.6465 0.6481
vt 0.6443 0.6449
vt 0.6465 0.6410
vt 0.6436 0.6426
vt 0.6452 0.6367
vt 0.6854 0.5314
vt 0.6888 0.5296
vt 0.6885 0.5317
vt 0.6850 0.5355
vt 0.6894 0.5336
vt 0.6871 0.5404
vt 0.6909 0.5343
vt 0.6899 0.5422
vt 0.6922 0.5333
vt 0.6922 0.5404
vt 0.6320 0.6256
vt 0.6415 0.6379
vt 0.6409 0.6445
vt 0.6304 0.6451
vt 0.6415 0.6502
vt 0.6314 0.6543
vt 0.6752 0.6520
vt 0.6669 0.6417
vt 0.6673 0.6353
vt 0.6752 0.6280
vt 0.6660 0.6304
vt 0.6728 0.6178
vt 0.6988 0.6462
vt 0.6988 0.6612
vt 0.6953 0.6608
vt 0.6911 0.6461
vt 0.6897 0.6063
vt 0.6799 0.6117
vt 0.6799 0.6055
vt 0.6897 0.5897
vt 0.6782 0.6005
vt 0.6853 0.5797
vt 0.6756 0.5989
vt 0.6788 0.5777
vt 0.6897 0.5931
vt 0.6993 0.5879
vt 0.6999 0.5989
vt 0.6917 0.6117
vt 0.6336 0.5778
vt 0.6436 0.5875
vt 0.6417 0.5929
vt 0.6304 0.5900
vt 0.6420 0.6069
vt 0.6318 0.6144
vt 0.6436 0.6135
vt 0.6359 0.6256
vt 0.6908 0.6590
vt 0.6831 0.6529
vt 0.6832 0.6438
vt 0.6908 0.6422
vt 0.6644 0.6497
vt 0.6559 0.6497
vt 0.6566 0.6388
vt 0.6660 0.6315
vt 0.6546 0.6318
vt 0.6591 0.6178
vt 0.6911 0.5760
vt 0.6999 0.5814
vt 0.6922 0.5460
vt 0.6998 0.5449
vt 0.7008 0.5590
vt 0.6936 0.5648
vt 0.6478 0.5778
vt 0.6544 0.5849
vt 0.6521 0.5920
vt 0.6436 0.5906
vt 0.6522 0.6118
vt 0.6440 0.6132
vt 0.6544 0.6197
vt 0.6477 0.6257
vt 0.7047 0.6637
vt 0.6991 0.6572
vt 0.6988 0.6472
vt 0.7047 0.6461
vt 0.6944 0.6117
vt 0.7010 0.6152
vt 0.6985 0.6282
vt 0.6911 0.6288
vt 0.7010 0.6373
vt 0.6964 0.6461
vt 0.6940 0.5296
vt 0.7008 0.5333
vt 0.6439 0.5483
vt 0.6412 0.5487
vt 0.6376 0.5310
vt 0.6474 0.5296
vt 0.6459 0.5520
vt 0.6546 0.5429
vt 0.6462 0.5575
vt 0.6546 0.5655
vt 0.6449 0.5611
vt 0.6499 0.5778
vt 0.6423 0.5611
vt 0.6406 0.5771
vt 0.6397 0.5580
vt 0.6307 0.5659
vt 0.6394 0.5529
vt 0.6304 0.5462
vt 0.6880 0.5569
vt 0.6922 0.5537
vt 0.6829 0.5530
vt 0.6784 0.5425
vt 0.6789 0.5347
vt 0.6505 0.6337
vt 0.6482 0.6257
vt 0.6505 0.6499
vt 0.6831 0.6518
vt 0.6787 0.6422
vt 0.6831 0.6424
vt 0.6801 0.6648
vt 0.3613 0.8338
vt 0.3622 0.8126
vt 0.3765 0.8094
vt 0.3757 0.8310
vt 0.6457 0.6519
vt 0.6484 0.6518
vt 0.6502 0.6557
vt 0.6502 0.6611
vt 0.6486 0.6645
vt 0.6459 0.6644
vt 0.6436 0.6608
vt 0.6436 0.6556
vt 0.3612 0.8647
vt 0.3756 0.8617
vt 0.3765 0.8414
vt 0.3770 0.8094
vt 0.3915 0.8116
vt 0.3909 0.8429
vt 0.3916 0.8858
vt 0.3915 0.8619
vt 0.4056 0.8650
vt 0.4056 0.8906
vt 0.4069 0.8094
vt 0.4059 0.8382
vt 0.3915 0.8396
vt 0.3924 0.8107
vt 0.3621 0.8838
vt 0.3765 0.8813
vt 0.3773 0.8649
vt 0.3915 0.8666
vt 0.4069 0.8617
vt 0.3926 0.8619
vn 0.9014 0.1854 -0.3912
vn 0.9226 0.2455 0.2977
vn 0.3102 0.3317 0.8909
vn -0.4227 0.3581 0.8326
vn -0.8652 0.3709 0.3374
vn -0.8647 0.3805 -0.3278
vn 0.0286 0.9993 -0.0241
vn -0.2729 0.3210 -0.9069
vn 0.4567 0.2183 -0.8624
vn -0.2978 -0.8322 0.4677
vn -0.4472 -0.5984 0.6647
vn -0.3832 -0.7090 0.5920
vn -0.3337 -0.7160 0.6132
vn 0.1113 -0.8198 0.5617
vn 0.2980 -0.5398 0.7873
vn 0.2616 -0.7486 0.6092
vn 0.1097 -0.8837 0.4549
vn 0.4795 -0.8613 0.1682
vn 0.8340 -0.4436 0.3281
vn 0.6792 -0.6473 0.3460
vn 0.3337 -0.9268 0.1722
vn 0.5158 -0.8484 -0.1186
vn 0.8880 -0.4572 -0.0488
vn 0.7375 -0.6507 -0.1806
vn 0.3781 -0.9172 -0.1252
vn 0.0589 -0.8672 -0.4944
vn 0.1162 -0.4504 -0.8852
vn 0.2769 -0.5410 -0.7941
vn 0.2053 -0.8726 -0.4431
vn 0.0151 -0.8424 -0.5386
vn -0.1254 -0.6048 -0.7864
vn -0.3330 -0.4262 -0.8411
vn -0.4046 -0.8298 -0.3843
vn -0.4324 -0.8150 -0.3858
vn -0.5425 -0.7923 -0.2793
vn -0.6907 -0.6915 -0.2114
vn -0.4495 -0.8752 -0.1789
vn -0.4665 -0.8279 0.3114
vn -0.6291 -0.6173 0.4724
vn -0.5815 -0.6904 0.4303
vn -0.7825 -0.5751 0.2387
vn 0.8762 0.2635 -0.4035
vn 0.8284 0.1246 0.5461
vn 0.4850 0.0864 0.8703
vn -0.3861 0.3248 0.8634
vn -0.8328 0.4995 0.2386
vn -0.7623 0.5312 -0.3699
vn -0.2930 0.5627 -0.7730
vn 0.4518 0.4207 -0.7867
vn 0.7949 0.3809 -0.4722
vn 0.8619 0.3376 0.3783
vn 0.2101 0.0904 0.9735
vn -0.3122 0.1403 0.9396
vn -0.9547 0.2711 0.1225
vn -0.8832 0.3011 -0.3596
vn -0.3309 0.4438 -0.8328
vn 0.4645 0.4221 -0.7785
vn 0.8382 0.3580 -0.4115
vn 0.7719 0.4137 0.4826
vn 0.2307 0.3541 0.9063
vn -0.2225 0.3035 0.9265
vn -0.9630 0.2578 0.0787
vn -0.9204 0.2735 -0.2793
vn -0.2746 0.2701 -0.9229
vn 0.4920 0.2845 -0.8228
vn 0.8789 0.3035 -0.3678
vn 0.7982 0.3102 0.5163
vn 0.1322 0.3824 0.9145
vn -0.3097 0.3364 0.8893
vn -0.9656 0.2431 0.0920
vn -0.9126 0.2810 -0.2971
vn -0.2514 0.2006 -0.9469
vn 0.4983 0.2614 -0.8267
vn 0.0125 -0.9972 0.0744
vn 0.0127 -0.9998 0.0176
vn 0.0835 -0.9949 -0.0572
vn -0.0295 -0.9967 -0.0751
vn -0.0168 -0.9996 -0.0218
vn -0.0284 -0.9991 0.0304
vn -0.0038 -1.0000 0.0068
vn -0.0026 -0.9998 0.0179
vn 0.4858 0.4087 -0.7727
vn -0.3451 0.5649 -0.7495
vn -0.7576 0.5318 -0.3785
vn -0.8413 0.5050 0.1930
vn -0.3294 0.3044 0.8938
vn 0.3417 0.1093 0.9334
vn 0.9049 0.1535 0.3970
vn 0.7803 0.3089 -0.5437
vn 0.9510 0.0087 -0.3090
vn 0.0394 -0.9975 0.0589
vn 0.4822 -0.0408 -0.8751
vn -0.9411 -0.0423 -0.3355
vn -0.3973 0.0324 0.9171
vn 0.8546 0.0831 0.5126
vn -0.3272 -0.0668 -0.9426
vn -0.9645 -0.0257 0.2628
vn 0.2953 0.1007 0.9501
usemtl Material.001
s off
f 20/1/1 2/2/1 4/3/1 21/4/1
f 21/4/2 4/3/2 6/5/2 25/6/2
f 25/7/3 6/8/3 8/9/3 29/10/3
f 29/10/4 8/9/4 10/11/4 33/12/4
f 33/13/5 10/14/5 12/15/5 37/16/5
f 37/17/6 12/18/6 14/19/6 41/20/6
f 4/21/7 2/22/7 16/23/7 14/19/7 12/18/7 10/24/7 8/25/7 6/26/7
f 41/20/8 14/19/8 16/23/8 45/27/8
f 45/28/9 16/29/9 2/2/9 20/1/9
f 79/30/10 48/31/10 17/32/10 80/33/10
f 72/34/11 47/35/11 18/36/11 65/37/11
f 64/38/12 46/39/12 19/40/12 57/41/12
f 56/42/13 45/43/13 20/44/13 49/45/13
f 78/46/14 44/47/14 48/31/14 79/30/14
f 71/48/15 43/49/15 47/35/15 72/34/15
f 63/50/16 42/51/16 46/39/16 64/38/16
f 55/52/17 41/53/17 45/43/17 56/42/17
f 77/54/18 40/55/18 44/47/18 78/46/18
f 70/56/19 39/57/19 43/49/19 71/48/19
f 62/58/20 38/59/20 42/51/20 63/50/20
f 54/60/21 37/61/21 41/53/21 55/52/21
f 76/62/22 36/63/22 40/55/22 77/54/22
f 69/64/23 35/65/23 39/57/23 70/56/23
f 61/66/24 34/67/24 38/59/24 62/58/24
f 53/68/25 33/69/25 37/61/25 54/60/25
f 75/70/26 32/71/26 36/63/26 76/62/26
f 68/72/27 31/73/27 35/65/27 69/64/27
f 60/74/28 30/75/28 34/67/28 61/66/28
f 52/76/29 29/77/29 33/69/29 53/68/29
f 74/78/30 28/79/30 32/71/30 75/70/30
f 67/80/31 27/81/31 31/73/31 68/72/31
f 59/82/32 26/83/32 30/75/32 60/74/32
f 51/84/33 25/85/33 29/77/33 52/76/33
f 73/86/34 24/87/34 28/79/34 74/78/34
f 66/88/35 23/89/35 27/81/35 67/80/35
f 58/90/36 22/91/36 26/83/36 59/82/36
f 50/92/37 21/93/37 25/85/37 51/84/37
f 80/33/38 17/32/38 24/87/38 73/86/38
f 65/37/39 18/36/39 23/89/39 66/88/39
f 57/41/40 19/40/40 22/91/40 58/90/40
f 49/45/41 20/44/41 21/93/41 50/92/41
f 104/94/42 49/95/42 50/96/42 97/97/42
f 97/98/43 50/99/43 51/100/43 98/101/43
f 98/101/44 51/100/44 52/102/44 99/103/44
f 99/103/45 52/102/45 53/104/45 100/105/45
f 100/106/46 53/107/46 54/108/46 101/109/46
f 101/109/47 54/108/47 55/110/47 102/111/47
f 102/111/48 55/110/48 56/112/48 103/113/48
f 103/113/49 56/112/49 49/114/49 104/115/49
f 18/116/50 57/117/50 58/118/50 23/119/50
f 23/119/51 58/118/51 59/120/51 27/121/51
f 27/122/52 59/123/52 60/124/52 31/125/52
f 31/125/53 60/124/53 61/126/53 35/127/53
f 35/128/54 61/129/54 62/130/54 39/131/54
f 39/132/55 62/133/55 63/134/55 43/135/55
f 43/135/56 63/134/56 64/136/56 47/137/56
f 47/137/57 64/136/57 57/138/57 18/139/57
f 17/140/58 65/141/58 66/142/58 24/143/58
f 24/144/59 66/145/59 67/146/59 28/147/59
f 28/147/60 67/146/60 68/148/60 32/149/60
f 32/149/61 68/148/61 69/150/61 36/151/61
f 36/152/62 69/153/62 70/154/62 40/155/62
f 40/156/63 70/157/63 71/158/63 44/159/63
f 44/159/64 71/158/64 72/160/64 48/161/64
f 48/162/65 72/163/65 65/141/65 17/140/65
f 81/164/66 80/165/66 73/166/66 82/167/66
f 82/168/67 73/169/67 74/170/67 83/171/67
f 83/171/68 74/170/68 75/172/68 84/173/68
f 84/173/69 75/172/69 76/174/69 85/175/69
f 85/176/70 76/177/70 77/178/70 86/179/70
f 86/180/71 77/181/71 78/182/71 87/183/71
f 87/183/72 78/182/72 79/184/72 88/185/72
f 88/186/73 79/187/73 80/165/73 81/164/73
f 3/188/74 1/189/74 81/190/74 82/191/74
f 5/192/75 3/188/75 82/191/75 83/193/75
f 7/194/76 5/192/76 83/193/76 84/195/76
f 9/196/77 7/194/77 84/195/77 85/197/77
f 11/198/78 9/196/78 85/197/78 86/199/78
f 13/200/79 11/198/79 86/199/79 87/201/79
f 15/202/80 13/200/80 87/201/80 88/203/80
f 1/189/81 15/202/81 88/203/81 81/190/81
f 46/204/82 103/113/82 104/115/82 19/205/82
f 42/206/83 102/111/83 103/113/83 46/204/83
f 38/207/84 101/109/84 102/111/84 42/206/84
f 34/208/85 100/106/85 101/109/85 38/207/85
f 30/209/86 99/103/86 100/105/86 34/210/86
f 26/211/87 98/101/87 99/103/87 30/209/87
f 22/212/88 97/97/88 98/213/88 26/214/88
f 19/215/89 104/94/89 97/97/89 22/212/89
usemtl bark
f 1/216/90 3/217/90 90/218/90 89/219/90
f 89/220/91 90/221/91 91/222/91 92/223/91 93/224/91 94/225/91 95/226/91 96/227/91
f 15/228/92 1/216/92 89/219/92 96/229/92
f 11/230/93 13/231/93 95/232/93 94/233/93
f 7/234/94 9/235/94 93/236/94 92/237/94
f 3/238/95 5/239/95 91/240/95 90/241/95
f 13/242/96 15/228/96 96/229/96 95/243/96
f 9/244/97 11/230/97 94/233/97 93/245/97
f 5/239/98 7/246/98 92/247/98 91/240/98
