# Blender v2.78 (sub 0) OBJ File: 'low+poly+forest+assets+1+.blend'
# www.blender.org
mtllib tree1.mtl
o tree_1_Cylinder.006
v -0.764647 -0.510203 -0.642814
v -1.151182 4.497773 -0.496951
v -0.279146 -0.510203 -0.362510
v -0.792002 4.497773 -0.289578
v -0.279146 -0.510203 0.198098
v -0.792002 4.497773 0.125167
v -0.764647 -0.510203 0.478402
v -1.151182 4.497773 0.332539
v -1.250148 -0.510203 0.198098
v -1.510361 4.497773 0.125167
v -1.250148 -0.510203 -0.362510
v -1.510361 4.497773 -0.289578
v -1.151182 3.619789 1.097797
v 0.258733 4.696875 2.122148
v -1.689710 4.696875 2.755246
v -2.893944 4.696875 1.097797
v -1.689710 4.696875 -0.559651
v 0.258733 4.696875 0.073447
v -0.612653 6.439647 2.755246
v -2.561096 6.439647 2.122148
v -2.561096 6.439647 0.073447
v -0.612653 6.439647 -0.559651
v 0.591581 6.439647 1.097797
v -1.151182 7.516734 1.097797
v -0.507611 3.609266 -1.233872
v 0.909918 4.692169 -0.203989
v -1.049048 4.692169 0.432528
v -2.259786 4.692169 -1.233872
v -1.049048 4.692169 -2.900272
v 0.909918 4.692169 -2.263755
v 0.033826 6.444354 0.432528
v -1.925140 6.444354 -0.203989
v -1.925140 6.444354 -2.263755
v 0.033826 6.444354 -2.900272
v 1.244563 6.444354 -1.233872
v -0.507611 7.527257 -1.233872
v -1.710413 5.315698 0.078064
v -0.543927 6.206820 0.925556
v -2.155962 6.206820 1.449346
v -3.152279 6.206820 0.078064
v -2.155962 6.206820 -1.293218
v -0.543927 6.206820 -0.769427
v -1.264864 7.648694 1.449346
v -2.876899 7.648694 0.925556
v -2.876899 7.648694 -0.769427
v -1.264864 7.648694 -1.293218
v -0.268547 7.648694 0.078064
v -1.710413 8.539817 0.078064
v -1.878798 3.775732 -0.160107
v -0.966037 4.594162 0.250410
v -2.188335 4.737497 0.646539
v -2.966102 4.450215 -0.345455
v -2.224460 4.129332 -1.354665
v -0.988363 4.218299 -0.986391
v -1.489223 5.774472 0.318782
v -2.725319 5.685505 -0.049492
v -2.747645 5.309641 -1.286292
v -1.525347 5.166306 -1.682421
v -0.747581 5.453588 -0.690427
v -1.834884 6.128072 -0.875776
vt 0.2526 0.8556
vt 0.2620 0.8683
vt 0.2620 0.8937
vt 0.2526 0.9064
vt 0.2432 0.8937
vt 0.2432 0.8683
vt 0.3468 0.6255
vt 0.3610 0.6456
vt 0.3402 0.6565
vt 0.3610 0.6083
vt 0.3274 0.6260
vt 0.3402 0.5961
vt 0.3822 0.6565
vt 0.3822 0.6745
vt 0.3741 0.6727
vt 0.4138 0.5658
vt 0.4188 0.5354
vt 0.4232 0.5470
vt 0.3296 0.6463
vt 0.3296 0.6090
vt 0.3368 0.6565
vt 0.3368 0.6941
vt 0.3274 0.6753
vt 0.3633 0.6437
vt 0.3610 0.6267
vt 0.3739 0.6565
vt 0.4232 0.5846
vt 0.3741 0.6777
vt 0.3673 0.6702
vt 0.3741 0.6565
vt 0.3324 0.7057
vt 0.3633 0.6063
vt 0.3739 0.5961
vt 0.3804 0.6272
vt 0.3946 0.6444
vt 0.3946 0.6071
vt 0.3469 0.5649
vt 0.3612 0.5851
vt 0.3403 0.5961
vt 0.3612 0.5476
vt 0.3274 0.5654
vt 0.3403 0.5354
vt 0.3659 0.6565
vt 0.3673 0.6744
vt 0.3591 0.6744
vt 0.3950 0.5659
vt 0.4000 0.5354
vt 0.4044 0.5470
vt 0.3296 0.5859
vt 0.3296 0.5483
vt 0.4138 0.5354
vt 0.4138 0.5731
vt 0.4044 0.5543
vt 0.3634 0.5832
vt 0.3612 0.5661
vt 0.3741 0.5961
vt 0.4044 0.5848
vt 0.3591 0.6778
vt 0.3523 0.6703
vt 0.3591 0.6565
vt 0.4094 0.5848
vt 0.3634 0.5456
vt 0.3741 0.5354
vt 0.3807 0.5666
vt 0.3950 0.5839
vt 0.3950 0.5464
vt 0.4107 0.6204
vt 0.4225 0.6371
vt 0.4053 0.6461
vt 0.4225 0.6062
vt 0.3946 0.6208
vt 0.4053 0.5961
vt 0.3889 0.6713
vt 0.3889 0.6861
vt 0.3822 0.6846
vt 0.3368 0.6817
vt 0.3409 0.6565
vt 0.3445 0.6661
vt 0.3965 0.6377
vt 0.3965 0.6068
vt 0.3523 0.6565
vt 0.3523 0.6876
vt 0.3445 0.6721
vt 0.3965 0.6855
vt 0.3946 0.6714
vt 0.4053 0.6961
vt 0.3445 0.6972
vt 0.3889 0.6713
vt 0.3822 0.6713
vt 0.3833 0.6565
vt 0.3486 0.6972
vt 0.3965 0.6546
vt 0.4053 0.6461
vt 0.4107 0.6718
vt 0.4225 0.6861
vt 0.4225 0.6552
vt 0.0000 0.0000
vt 1.0000 0.0000
vt 1.0000 1.0000
vt 0.0000 0.0000
vt 1.0000 0.0000
vt 1.0000 1.0000
vt 1.0000 0.0000
vt 1.0000 1.0000
vt 1.0000 0.0000
vt 1.0000 1.0000
vt 1.0000 0.0000
vt 1.0000 0.0000
vt 1.0000 1.0000
vt 0.0000 0.0000
vt 1.0000 1.0000
vt 0.0000 0.0000
vt 1.0000 1.0000
vt 0.0000 0.0000
vt 1.0000 1.0000
vt 0.0000 0.0000
vt 1.0000 1.0000
vt 1.0000 0.0000
vt 1.0000 0.0000
vt 1.0000 0.0000
vt 1.0000 0.0000
vt 1.0000 0.0000
vt 0.0000 0.0000
vt 1.0000 1.0000
vt 0.0000 0.0000
vt 0.0000 0.0000
vt 0.0000 0.0000
vt 0.0000 0.0000
vt 0.2139 0.7934
vt 0.2101 0.9363
vt 0.2046 0.9316
vt 0.2065 0.7870
vt 0.1938 0.9316
vt 0.1919 0.7870
vt 0.1884 0.9363
vt 0.1846 0.7934
vt 0.2139 0.9323
vt 0.2177 0.7894
vt 0.2231 0.7870
vt 0.2212 0.9290
vt 0.2340 0.7870
vt 0.2359 0.9290
vt 0.2394 0.7894
vt 0.2432 0.9323
vt 0.2432 0.8384
vt 0.2432 0.8041
vt 0.2559 0.7870
vt 0.2686 0.8041
vt 0.2686 0.8384
vt 0.2559 0.8556
vn 0.0000 1.0000 0.0000
vn 0.1876 -0.7947 0.5774
vn 0.6071 -0.7947 0.0000
vn -0.4911 -0.7947 0.3568
vn -0.4911 -0.7947 -0.3568
vn 0.1876 -0.7947 -0.5774
vn 0.9822 -0.1876 0.0000
vn 0.3035 -0.1876 0.9342
vn -0.7946 -0.1876 0.5774
vn -0.7946 -0.1876 -0.5774
vn 0.3035 -0.1876 -0.9342
vn 0.7946 0.1876 0.5774
vn -0.3035 0.1876 0.9342
vn -0.9822 0.1876 0.0000
vn -0.3035 0.1876 -0.9342
vn 0.7946 0.1876 -0.5774
vn 0.4911 0.7947 0.3568
vn -0.1876 0.7947 0.5774
vn -0.6071 0.7947 0.0000
vn -0.1876 0.7947 -0.5774
vn 0.4911 0.7947 -0.3568
vn 0.1833 -0.5964 0.7815
vn 0.5927 -0.7735 0.2244
vn -0.4990 -0.6455 0.5782
vn -0.5113 -0.8530 -0.1045
vn 0.1634 -0.9321 -0.3232
vn 0.9786 -0.2012 0.0435
vn 0.3162 0.0854 0.9448
vn -0.7878 0.0060 0.6159
vn -0.8077 -0.3297 -0.4887
vn 0.2840 -0.4577 -0.8425
vn 0.8077 0.3297 0.4887
vn -0.2840 0.4577 0.8425
vn -0.9786 0.2012 -0.0435
vn -0.3162 -0.0854 -0.9448
vn 0.7878 -0.0060 -0.6159
vn 0.5113 0.8530 0.1045
vn -0.1634 0.9321 0.3232
vn -0.5927 0.7735 -0.2244
vn -0.1833 0.5964 -0.7815
vn 0.4990 0.6455 -0.5782
vn 0.4990 0.0637 -0.8643
vn 0.9948 0.1019 0.0000
vn 0.4990 0.0637 0.8643
vn -0.5000 -0.0134 0.8659
vn -0.9987 -0.0519 0.0000
vn -0.5000 -0.0134 -0.8659
vn 0.0000 -1.0000 0.0000
usemtl leaves
s off
f 4/1/1 2/2/1 12/3/1 10/4/1 8/5/1 6/6/1
f 13/7/2 14/8/2 15/9/2
f 14/8/3 13/7/3 18/10/3
f 13/7/4 15/9/4 16/11/4
f 13/7/5 16/11/5 17/12/5
f 13/7/6 17/12/6 18/10/6
f 14/13/7 18/14/7 23/15/7
f 15/16/8 14/17/8 19/18/8
f 16/11/9 15/9/9 20/19/9
f 17/12/10 16/11/10 21/20/10
f 18/21/11 17/22/11 22/23/11
f 14/24/12 23/25/12 19/26/12
f 15/16/13 19/18/13 20/27/13
f 16/28/14 20/29/14 21/30/14
f 17/22/15 21/31/15 22/23/15
f 18/32/16 22/33/16 23/25/16
f 19/26/17 23/25/17 24/34/17
f 20/35/18 19/26/18 24/34/18
f 21/36/19 20/35/19 24/34/19
f 22/33/20 21/36/20 24/34/20
f 23/25/21 22/33/21 24/34/21
f 25/37/2 26/38/2 27/39/2
f 26/38/3 25/37/3 30/40/3
f 25/37/4 27/39/4 28/41/4
f 25/37/5 28/41/5 29/42/5
f 25/37/6 29/42/6 30/40/6
f 26/43/7 30/44/7 35/45/7
f 27/46/8 26/47/8 31/48/8
f 28/41/9 27/39/9 32/49/9
f 29/42/10 28/41/10 33/50/10
f 30/51/11 29/52/11 34/53/11
f 26/54/12 35/55/12 31/56/12
f 27/46/13 31/48/13 32/57/13
f 28/58/14 32/59/14 33/60/14
f 29/52/15 33/61/15 34/53/15
f 30/62/16 34/63/16 35/55/16
f 31/56/17 35/55/17 36/64/17
f 32/65/18 31/56/18 36/64/18
f 33/66/19 32/65/19 36/64/19
f 34/63/20 33/66/20 36/64/20
f 35/55/21 34/63/21 36/64/21
f 37/67/2 38/68/2 39/69/2
f 38/68/3 37/67/3 42/70/3
f 37/67/4 39/69/4 40/71/4
f 37/67/5 40/71/5 41/72/5
f 37/67/6 41/72/6 42/70/6
f 38/73/7 42/74/7 47/75/7
f 39/76/8 38/77/8 43/78/8
f 40/71/9 39/69/9 44/79/9
f 41/72/10 40/71/10 45/80/10
f 42/81/11 41/82/11 46/83/11
f 38/84/12 47/85/12 43/86/12
f 39/76/13 43/78/13 44/87/13
f 40/88/14 44/89/14 45/90/14
f 41/82/15 45/91/15 46/83/15
f 42/92/16 46/93/16 47/85/16
f 43/86/17 47/85/17 48/94/17
f 44/95/18 43/86/18 48/94/18
f 45/96/19 44/95/19 48/94/19
f 46/93/20 45/96/20 48/94/20
f 47/85/21 46/93/21 48/94/21
f 49/97/22 50/98/22 51/99/22
f 50/100/23 49/101/23 54/102/23
f 49/97/24 51/103/24 52/104/24
f 49/97/25 52/105/25 53/106/25
f 49/97/26 53/107/26 54/102/26
f 50/100/27 54/108/27 59/109/27
f 51/110/28 50/98/28 55/111/28
f 52/112/29 51/103/29 56/113/29
f 53/114/30 52/105/30 57/115/30
f 54/116/31 53/107/31 58/117/31
f 50/100/32 59/118/32 55/111/32
f 51/110/33 55/119/33 56/113/33
f 52/112/34 56/120/34 57/115/34
f 53/114/35 57/121/35 58/117/35
f 54/116/36 58/122/36 59/109/36
f 55/123/37 59/118/37 60/124/37
f 56/125/38 55/119/38 60/124/38
f 57/126/39 56/120/39 60/124/39
f 58/127/40 57/121/40 60/124/40
f 59/128/41 58/122/41 60/124/41
usemtl bark
f 1/129/42 2/130/42 4/131/42 3/132/42
f 3/132/43 4/131/43 6/133/43 5/134/43
f 5/134/44 6/133/44 8/135/44 7/136/44
f 7/137/45 8/138/45 10/139/45 9/140/45
f 9/140/46 10/139/46 12/141/46 11/142/46
f 11/142/47 12/141/47 2/143/47 1/144/47
f 1/145/48 3/146/48 5/147/48 7/148/48 9/149/48 11/150/48
