# Blender v2.78 (sub 0) OBJ File: 'low+poly+forest+assets+1+.blend'
# www.blender.org
mtllib tree4.mtl
o pine_tree_1__Cylinder.001
v 0.078087 0.324451 -0.405728
v 0.078086 6.267527 -0.107495
v 0.341709 0.324451 -0.296532
v 0.130827 6.267527 -0.085650
v 0.450906 0.324451 -0.032909
v 0.152673 6.267527 -0.032909
v 0.341709 0.324451 0.230714
v 0.130827 6.267527 0.019832
v 0.078086 0.324451 0.339910
v 0.078086 6.267527 0.041678
v -0.185536 0.324451 0.230714
v 0.025346 6.267527 0.019832
v -0.294732 0.324451 -0.032909
v 0.003500 6.267527 -0.032909
v -0.185536 0.324451 -0.296532
v 0.025346 6.267527 -0.085650
v 0.078087 1.513066 -1.383131
v 0.078087 2.701681 -1.110422
v 0.078087 3.890296 -0.824666
v 0.078087 5.078912 -0.548791
v 0.442870 5.078912 -0.397692
v 0.637943 3.890296 -0.592766
v 0.840004 2.701681 -0.794826
v 1.032837 1.513066 -0.987660
v 0.593968 5.078912 -0.032909
v 0.869844 3.890296 -0.032909
v 1.155600 2.701681 -0.032909
v 1.428308 1.513066 -0.032909
v 0.442870 5.078912 0.331875
v 0.637943 3.890296 0.526948
v 0.840004 2.701681 0.729008
v 1.032837 1.513066 0.921842
v 0.078086 5.078912 0.482973
v 0.078086 3.890296 0.758848
v 0.078086 2.701681 1.044605
v 0.078086 1.513066 1.317313
v -0.286697 5.078912 0.331874
v -0.481770 3.890296 0.526948
v -0.683831 2.701681 0.729008
v -0.876665 1.513066 0.921842
v -0.437795 5.078912 -0.032909
v -0.713671 3.890296 -0.032909
v -0.999427 2.701681 -0.032909
v -1.272135 1.513066 -0.032909
v -0.286697 5.078912 -0.397692
v -0.481770 3.890296 -0.592766
v -0.683831 2.701681 -0.794826
v -0.876665 1.513066 -0.987660
v 0.078086 5.338201 -0.230819
v 0.218030 5.338201 -0.172852
v 0.275996 5.338201 -0.032909
v 0.218030 5.338201 0.107034
v 0.078086 5.338201 0.165001
v -0.061857 5.338201 0.107034
v -0.119823 5.338201 -0.032909
v -0.061857 5.338201 -0.172852
v 0.078087 4.184248 -0.480273
v 0.394421 4.184248 -0.349243
v 0.525450 4.184248 -0.032909
v 0.394421 4.184248 0.283425
v 0.078086 4.184248 0.414455
v -0.238248 4.184248 0.283425
v -0.369277 4.184248 -0.032909
v -0.238248 4.184248 -0.349243
v 0.078087 3.056241 -0.645448
v 0.511217 3.056240 -0.466040
v 0.690626 3.056240 -0.032909
v 0.511217 3.056240 0.400222
v 0.078086 3.056240 0.579630
v -0.355044 3.056240 0.400222
v -0.534453 3.056240 -0.032909
v -0.355044 3.056240 -0.466040
v 0.690758 1.756706 -0.645580
v 0.944535 1.756706 -0.032909
v 0.690758 1.756706 0.579762
v 0.078086 1.756706 0.833539
v -0.534585 1.756706 0.579762
v -0.788362 1.756706 -0.032909
v -0.534585 1.756706 -0.645580
v 0.078087 1.756706 -0.899357
v 0.078087 0.324451 -1.433446
v 1.068416 0.324451 -1.023238
v 1.478624 0.324451 -0.032909
v 1.068416 0.324451 0.957420
v 0.078086 0.324451 1.367628
v -0.912243 0.324451 0.957420
v -1.322450 0.324451 -0.032909
v -0.912243 0.324451 -1.023238
v 0.078087 -0.222650 -0.405728
v 0.341709 -0.222650 -0.296532
v 0.450906 -0.222650 -0.032909
v 0.341709 -0.222650 0.230714
v 0.078086 -0.222650 0.339910
v -0.185536 -0.222650 0.230714
v -0.294732 -0.222650 -0.032909
v -0.185536 -0.222650 -0.296532
vt 0.6914 0.4141
vt 0.6984 0.4199
vt 0.6983 0.4209
vt 0.6910 0.4209
vt 0.6727 0.3849
vt 0.6747 0.3749
vt 0.6754 0.3749
vt 0.6773 0.3849
vt 0.6782 0.4193
vt 0.6711 0.4188
vt 0.6711 0.4178
vt 0.6781 0.4123
vt 0.6707 0.4169
vt 0.6752 0.4061
vt 0.6701 0.4166
vt 0.6712 0.4044
vt 0.6847 0.3346
vt 0.6866 0.3246
vt 0.6873 0.3246
vt 0.6893 0.3346
vt 0.6707 0.4193
vt 0.6702 0.4191
vt 0.6698 0.4182
vt 0.6697 0.4172
vt 0.6982 0.4062
vt 0.6994 0.4187
vt 0.6988 0.4190
vt 0.6944 0.4080
vt 0.6609 0.3162
vt 0.6558 0.3200
vt 0.6558 0.2991
vt 0.6609 0.3029
vt 0.6606 0.3595
vt 0.6558 0.3631
vt 0.6558 0.3465
vt 0.6606 0.3501
vt 0.6594 0.3931
vt 0.6558 0.3958
vt 0.6558 0.3835
vt 0.6594 0.3862
vt 0.6943 0.3981
vt 0.6910 0.4005
vt 0.6910 0.3926
vt 0.6943 0.3950
vt 0.6663 0.3257
vt 0.6643 0.3347
vt 0.6645 0.3662
vt 0.6626 0.3749
vt 0.6622 0.3980
vt 0.6608 0.4044
vt 0.6955 0.4002
vt 0.6942 0.4062
vt 0.6740 0.3257
vt 0.6762 0.3347
vt 0.6699 0.3662
vt 0.6721 0.3749
vt 0.6661 0.3980
vt 0.6678 0.4044
vt 0.6973 0.4002
vt 0.6988 0.4062
vt 0.6794 0.3162
vt 0.6847 0.3200
vt 0.6737 0.3595
vt 0.6788 0.3631
vt 0.6689 0.3931
vt 0.6727 0.3958
vt 0.6985 0.3981
vt 0.7020 0.4005
vt 0.6794 0.3029
vt 0.6847 0.2991
vt 0.6737 0.3501
vt 0.6788 0.3465
vt 0.6689 0.3862
vt 0.6727 0.3835
vt 0.6985 0.3950
vt 0.7020 0.3926
vt 0.6740 0.2934
vt 0.6762 0.2844
vt 0.6699 0.3434
vt 0.6721 0.3347
vt 0.6661 0.3813
vt 0.6678 0.3749
vt 0.6973 0.3929
vt 0.6988 0.3869
vt 0.6663 0.2934
vt 0.6643 0.2844
vt 0.6645 0.3434
vt 0.6626 0.3347
vt 0.6622 0.3813
vt 0.6608 0.3749
vt 0.6955 0.3929
vt 0.6942 0.3869
vt 0.6489 0.3894
vt 0.6437 0.4039
vt 0.6423 0.4033
vt 0.6431 0.3869
vt 0.6329 0.4279
vt 0.6259 0.4233
vt 0.6259 0.4202
vt 0.6329 0.4156
vt 0.6910 0.4083
vt 0.6818 0.4083
vt 0.6816 0.4056
vt 0.6902 0.3976
vt 0.6804 0.4034
vt 0.6854 0.3887
vt 0.6788 0.4029
vt 0.6793 0.3869
vt 0.6399 0.4279
vt 0.6329 0.4233
vt 0.6329 0.4202
vt 0.6399 0.4156
vt 0.6546 0.4087
vt 0.6451 0.4087
vt 0.6449 0.4062
vt 0.6537 0.3985
vt 0.6964 0.2962
vt 0.6866 0.3010
vt 0.6847 0.2961
vt 0.6919 0.2844
vt 0.7066 0.4228
vt 0.6994 0.4179
vt 0.6994 0.4110
vt 0.7066 0.4062
vt 0.6421 0.3869
vt 0.6423 0.4037
vt 0.6388 0.4047
vt 0.6337 0.3892
vt 0.6360 0.4096
vt 0.6270 0.4011
vt 0.6355 0.4156
vt 0.6259 0.4156
vt 0.6788 0.4083
vt 0.6861 0.4131
vt 0.6861 0.4200
vt 0.6788 0.4249
vt 0.6919 0.3246
vt 0.6847 0.3128
vt 0.6866 0.3079
vt 0.6964 0.3128
vt 0.6396 0.3722
vt 0.6505 0.3665
vt 0.6531 0.3732
vt 0.6453 0.3869
vt 0.6964 0.2844
vt 0.7039 0.2901
vt 0.7039 0.2995
vt 0.6964 0.3052
vt 0.6333 0.3869
vt 0.6259 0.3732
vt 0.6287 0.3665
vt 0.6396 0.3722
vt 0.6287 0.3570
vt 0.6396 0.3513
vt 0.6259 0.3504
vt 0.6333 0.3366
vt 0.7039 0.3261
vt 0.6964 0.3204
vt 0.6964 0.3109
vt 0.7039 0.3052
vt 0.6453 0.3366
vt 0.6531 0.3504
vt 0.6505 0.3570
vt 0.6396 0.3513
vt 0.6918 0.3716
vt 0.7008 0.3675
vt 0.7045 0.3770
vt 0.6977 0.3869
vt 0.6628 0.4260
vt 0.6558 0.4219
vt 0.6558 0.4085
vt 0.6628 0.4044
vt 0.6853 0.3869
vt 0.6788 0.3770
vt 0.6829 0.3675
vt 0.6918 0.3716
vt 0.6829 0.3541
vt 0.6918 0.3500
vt 0.6788 0.3447
vt 0.6853 0.3347
vt 0.6697 0.4260
vt 0.6628 0.4219
vt 0.6628 0.4085
vt 0.6697 0.4044
vt 0.6977 0.3347
vt 0.7045 0.3447
vt 0.7008 0.3541
vt 0.6918 0.3500
vt 0.6392 0.3035
vt 0.6369 0.3076
vt 0.6259 0.2997
vt 0.6346 0.2844
vt 0.6425 0.3035
vt 0.6470 0.2844
vt 0.6448 0.3076
vt 0.6558 0.2997
vt 0.6448 0.3134
vt 0.6558 0.3213
vt 0.6425 0.3174
vt 0.6470 0.3366
vt 0.6392 0.3174
vt 0.6346 0.3366
vt 0.6369 0.3134
vt 0.6259 0.3213
vt 0.2594 0.8855
vt 0.2594 0.8611
vt 0.2769 0.8611
vt 0.2769 0.8855
vt 0.6423 0.4128
vt 0.6446 0.4087
vt 0.6479 0.4087
vt 0.6502 0.4128
vt 0.6502 0.4186
vt 0.6479 0.4226
vt 0.6446 0.4226
vt 0.6423 0.4186
vt 0.2594 0.8855
vt 0.2594 0.9199
vt 0.2419 0.9199
vt 0.2419 0.8855
vt 0.2594 0.8267
vt 0.2594 0.8611
vt 0.2419 0.8611
vt 0.2419 0.8267
vt 0.2244 0.8855
vt 0.2244 0.8510
vt 0.2419 0.8510
vt 0.2419 0.8855
vt 0.2594 0.8267
vt 0.2769 0.8267
vt 0.2244 0.8267
vt 0.2244 0.9099
vt 0.2419 0.9099
vn 0.3620 0.3245 -0.8739
vn 0.8739 0.3245 -0.3620
vn 0.8739 0.3245 0.3620
vn 0.3620 0.3245 0.8739
vn -0.3620 0.3245 0.8739
vn -0.8739 0.3245 0.3620
vn 0.0000 1.0000 0.0000
vn -0.8739 0.3245 -0.3620
vn -0.3620 0.3245 -0.8739
vn 0.1832 -0.8780 0.4422
vn 0.2436 -0.7712 0.5881
vn 0.2597 -0.7345 0.6269
vn 0.2532 -0.7497 0.6114
vn 0.4422 -0.8780 0.1832
vn 0.5881 -0.7712 0.2436
vn 0.6269 -0.7345 0.2597
vn 0.6114 -0.7497 0.2532
vn 0.4422 -0.8780 -0.1832
vn 0.5881 -0.7712 -0.2436
vn 0.6269 -0.7345 -0.2597
vn 0.6114 -0.7497 -0.2532
vn 0.1832 -0.8780 -0.4422
vn 0.2436 -0.7712 -0.5881
vn 0.2597 -0.7345 -0.6269
vn 0.2532 -0.7497 -0.6114
vn -0.1832 -0.8780 -0.4422
vn -0.2436 -0.7712 -0.5881
vn -0.2597 -0.7345 -0.6269
vn -0.2532 -0.7497 -0.6114
vn -0.4422 -0.8780 -0.1832
vn -0.5881 -0.7712 -0.2436
vn -0.6269 -0.7345 -0.2597
vn -0.6114 -0.7497 -0.2532
vn -0.4422 -0.8780 0.1832
vn -0.5881 -0.7712 0.2436
vn -0.6269 -0.7345 0.2597
vn -0.6114 -0.7497 0.2532
vn -0.1832 -0.8780 0.4422
vn -0.2436 -0.7712 0.5881
vn -0.2597 -0.7345 0.6269
vn -0.2532 -0.7497 0.6114
vn 0.3579 0.3543 -0.8639
vn 0.8639 0.3543 -0.3579
vn 0.8639 0.3543 0.3579
vn 0.3579 0.3543 0.8639
vn -0.3579 0.3543 0.8639
vn -0.8639 0.3543 0.3579
vn -0.8639 0.3543 -0.3579
vn -0.3579 0.3543 -0.8639
vn 0.3562 0.3655 -0.8600
vn 0.8600 0.3655 -0.3562
vn 0.8600 0.3655 0.3562
vn 0.3562 0.3655 0.8600
vn -0.3562 0.3655 0.8600
vn -0.8600 0.3655 0.3562
vn -0.8600 0.3655 -0.3562
vn -0.3562 0.3655 -0.8600
vn 0.3501 0.4040 -0.8451
vn 0.8451 0.4040 -0.3501
vn 0.8451 0.4040 0.3501
vn 0.3501 0.4040 0.8451
vn -0.3501 0.4040 0.8451
vn -0.8451 0.4040 0.3501
vn -0.8451 0.4040 -0.3501
vn -0.3501 0.4040 -0.8451
vn 0.3618 0.3257 -0.8735
vn 0.8735 0.3257 -0.3618
vn 0.8735 0.3257 0.3618
vn 0.3618 0.3257 0.8735
vn -0.3618 0.3257 0.8735
vn -0.8735 0.3257 0.3618
vn -0.8735 0.3257 -0.3618
vn -0.3618 0.3257 -0.8735
vn 0.0000 -1.0000 0.0000
vn 0.3827 0.0000 -0.9239
vn -0.3827 0.0000 -0.9239
vn -0.9239 0.0000 0.3827
vn 0.3827 0.0000 0.9239
vn 0.9239 0.0000 -0.3827
vn -0.9239 0.0000 -0.3827
vn -0.3827 0.0000 0.9239
vn 0.9239 0.0000 0.3827
usemtl Material
s off
f 20/1/1 2/2/1 4/3/1 21/4/1
f 21/5/2 4/6/2 6/7/2 25/8/2
f 25/9/3 6/10/3 8/11/3 29/12/3
f 29/12/4 8/11/4 10/13/4 33/14/4
f 33/14/5 10/13/5 12/15/5 37/16/5
f 37/17/6 12/18/6 14/19/6 41/20/6
f 4/21/7 2/22/7 16/23/7 14/24/7 12/15/7 10/13/7 8/11/7 6/10/7
f 41/25/8 14/26/8 16/27/8 45/28/8
f 45/28/9 16/27/9 2/2/9 20/1/9
f 79/29/10 48/30/10 17/31/10 80/32/10
f 72/33/11 47/34/11 18/35/11 65/36/11
f 64/37/12 46/38/12 19/39/12 57/40/12
f 56/41/13 45/42/13 20/43/13 49/44/13
f 78/45/14 44/46/14 48/30/14 79/29/14
f 71/47/15 43/48/15 47/34/15 72/33/15
f 63/49/16 42/50/16 46/38/16 64/37/16
f 55/51/17 41/52/17 45/42/17 56/41/17
f 77/53/18 40/54/18 44/46/18 78/45/18
f 70/55/19 39/56/19 43/48/19 71/47/19
f 62/57/20 38/58/20 42/50/20 63/49/20
f 54/59/21 37/60/21 41/52/21 55/51/21
f 76/61/22 36/62/22 40/54/22 77/53/22
f 69/63/23 35/64/23 39/56/23 70/55/23
f 61/65/24 34/66/24 38/58/24 62/57/24
f 53/67/25 33/68/25 37/60/25 54/59/25
f 75/69/26 32/70/26 36/62/26 76/61/26
f 68/71/27 31/72/27 35/64/27 69/63/27
f 60/73/28 30/74/28 34/66/28 61/65/28
f 52/75/29 29/76/29 33/68/29 53/67/29
f 74/77/30 28/78/30 32/70/30 75/69/30
f 67/79/31 27/80/31 31/72/31 68/71/31
f 59/81/32 26/82/32 30/74/32 60/73/32
f 51/83/33 25/84/33 29/76/33 52/75/33
f 73/85/34 24/86/34 28/78/34 74/77/34
f 66/87/35 23/88/35 27/80/35 67/79/35
f 58/89/36 22/90/36 26/82/36 59/81/36
f 50/91/37 21/92/37 25/84/37 51/83/37
f 80/32/38 17/31/38 24/86/38 73/85/38
f 65/36/39 18/35/39 23/88/39 66/87/39
f 57/40/40 19/39/40 22/90/40 58/89/40
f 49/44/41 20/43/41 21/92/41 50/91/41
f 19/93/42 49/94/42 50/95/42 22/96/42
f 22/97/43 50/98/43 51/99/43 26/100/43
f 26/101/44 51/102/44 52/103/44 30/104/44
f 30/104/45 52/103/45 53/105/45 34/106/45
f 34/106/46 53/105/46 54/107/46 38/108/46
f 38/109/47 54/110/47 55/111/47 42/112/47
f 42/113/48 55/114/48 56/115/48 46/116/48
f 46/116/49 56/115/49 49/94/49 19/93/49
f 18/117/50 57/118/50 58/119/50 23/120/50
f 23/121/51 58/122/51 59/123/51 27/124/51
f 27/125/52 59/126/52 60/127/52 31/128/52
f 31/128/53 60/127/53 61/129/53 35/130/53
f 35/130/54 61/129/54 62/131/54 39/132/54
f 39/133/55 62/134/55 63/135/55 43/136/55
f 43/137/56 63/138/56 64/139/56 47/140/56
f 47/140/57 64/139/57 57/118/57 18/117/57
f 17/141/58 65/142/58 66/143/58 24/144/58
f 24/145/59 66/146/59 67/147/59 28/148/59
f 28/149/60 67/150/60 68/151/60 32/152/60
f 32/152/61 68/151/61 69/153/61 36/154/61
f 36/154/62 69/153/62 70/155/62 40/156/62
f 40/157/63 70/158/63 71/159/63 44/160/63
f 44/161/64 71/162/64 72/163/64 48/164/64
f 48/164/65 72/163/65 65/142/65 17/141/65
f 81/165/66 80/166/66 73/167/66 82/168/66
f 82/169/67 73/170/67 74/171/67 83/172/67
f 83/173/68 74/174/68 75/175/68 84/176/68
f 84/176/69 75/175/69 76/177/69 85/178/69
f 85/178/70 76/177/70 77/179/70 86/180/70
f 86/181/71 77/182/71 78/183/71 87/184/71
f 87/185/72 78/186/72 79/187/72 88/188/72
f 88/188/73 79/187/73 80/166/73 81/165/73
f 3/189/74 1/190/74 81/191/74 82/192/74
f 5/193/74 3/189/74 82/192/74 83/194/74
f 7/195/74 5/193/74 83/194/74 84/196/74
f 9/197/74 7/195/74 84/196/74 85/198/74
f 11/199/74 9/197/74 85/198/74 86/200/74
f 13/201/74 11/199/74 86/200/74 87/202/74
f 15/203/74 13/201/74 87/202/74 88/204/74
f 1/190/74 15/203/74 88/204/74 81/191/74
usemtl bark
f 1/205/75 3/206/75 90/207/75 89/208/75
f 89/209/74 90/210/74 91/211/74 92/212/74 93/213/74 94/214/74 95/215/74 96/216/74
f 15/217/76 1/218/76 89/219/76 96/220/76
f 11/221/77 13/222/77 95/223/77 94/224/77
f 7/225/78 9/226/78 93/227/78 92/228/78
f 3/206/79 5/229/79 91/230/79 90/207/79
f 13/222/80 15/217/80 96/220/80 95/223/80
f 9/226/81 11/231/81 94/224/81 93/227/81
f 5/232/82 7/225/82 92/228/82 91/233/82
